<svg id="svg" version="1.1" xmlns="http://www.w3.org/2000/svg" xmlns:xlink="http://www.w3.org/1999/xlink" width="400" height="230.33333333333334" viewBox="0, 0, 400,230.33333333333334"><g id="svgg"><path id="path0" d="M188.940 0.678 C 188.940 1.050,188.844 1.415,188.726 1.488 C 188.608 1.561,188.440 2.189,188.354 2.884 C 188.267 3.579,188.114 4.147,188.015 4.147 C 187.915 4.147,187.761 4.770,187.673 5.530 C 187.584 6.291,187.424 6.968,187.315 7.035 C 187.207 7.102,187.048 7.776,186.962 8.532 C 186.877 9.289,186.733 9.908,186.643 9.908 C 186.553 9.908,186.343 10.789,186.175 11.866 C 186.008 12.944,185.792 13.825,185.695 13.825 C 185.599 13.825,185.448 14.499,185.360 15.323 C 185.272 16.146,185.118 16.820,185.019 16.820 C 184.919 16.820,184.766 17.442,184.677 18.203 C 184.589 18.963,184.443 19.585,184.353 19.585 C 184.263 19.585,184.074 20.181,183.933 20.910 C 183.793 21.639,183.457 23.168,183.187 24.309 C 182.917 25.449,182.580 27.031,182.439 27.823 C 182.298 28.615,182.104 29.263,182.008 29.263 C 181.912 29.263,181.762 29.937,181.674 30.760 C 181.585 31.584,181.435 32.258,181.339 32.258 C 181.244 32.258,181.093 32.800,181.006 33.462 C 180.918 34.124,180.761 34.772,180.658 34.902 C 180.471 35.138,180.318 35.817,179.570 39.747 C 179.353 40.887,179.104 41.872,179.016 41.935 C 178.929 41.999,178.784 42.595,178.693 43.260 C 178.602 43.925,178.444 44.521,178.342 44.585 C 178.240 44.648,178.084 45.322,177.995 46.083 C 177.907 46.843,177.753 47.465,177.654 47.465 C 177.554 47.465,177.399 48.062,177.308 48.790 C 177.218 49.519,177.061 50.219,176.960 50.346 C 176.858 50.472,176.646 51.406,176.488 52.419 C 176.331 53.433,176.119 54.369,176.019 54.499 C 175.918 54.629,175.764 55.277,175.676 55.939 C 175.589 56.601,175.437 57.143,175.339 57.143 C 175.241 57.143,175.088 57.765,175.000 58.526 C 174.912 59.286,174.756 59.960,174.654 60.023 C 174.553 60.086,174.397 60.760,174.309 61.520 C 174.221 62.281,174.073 62.903,173.982 62.903 C 173.891 62.903,173.680 63.759,173.514 64.804 C 173.347 65.850,173.131 66.809,173.033 66.935 C 172.936 67.062,172.782 67.762,172.692 68.491 C 172.601 69.219,172.446 69.816,172.346 69.816 C 172.247 69.816,172.093 70.438,172.005 71.198 C 171.916 71.959,171.763 72.581,171.663 72.581 C 171.563 72.581,171.408 73.177,171.318 73.906 C 171.228 74.634,171.074 75.334,170.976 75.461 C 170.878 75.588,170.662 76.547,170.496 77.592 C 170.329 78.638,170.119 79.493,170.027 79.493 C 169.936 79.493,169.789 80.115,169.700 80.876 C 169.612 81.636,169.459 82.258,169.359 82.258 C 169.260 82.258,169.106 82.932,169.018 83.756 C 168.930 84.579,168.774 85.253,168.672 85.253 C 168.570 85.253,168.415 85.822,168.328 86.517 C 168.242 87.212,168.083 87.835,167.975 87.902 C 167.867 87.968,167.647 88.955,167.486 90.094 C 167.325 91.234,167.119 92.166,167.029 92.166 C 166.939 92.166,166.793 92.788,166.705 93.548 C 166.617 94.309,166.463 94.931,166.363 94.931 C 166.264 94.931,166.111 95.500,166.024 96.195 C 165.937 96.890,165.782 97.510,165.679 97.574 C 165.576 97.638,165.418 98.287,165.327 99.018 C 165.237 99.748,165.082 100.449,164.983 100.576 C 164.883 100.703,164.690 101.377,164.553 102.074 C 164.416 102.771,164.146 104.015,163.954 104.839 C 163.762 105.662,163.602 106.622,163.599 106.970 C 163.597 107.319,163.503 107.604,163.391 107.604 C 163.278 107.604,163.116 108.172,163.029 108.867 C 162.942 109.562,162.784 110.185,162.678 110.250 C 162.572 110.316,162.412 110.913,162.323 111.579 C 162.234 112.244,162.080 112.892,161.982 113.018 C 161.883 113.145,161.728 113.819,161.636 114.516 C 161.544 115.213,161.389 115.887,161.291 116.014 C 161.193 116.141,160.985 117.022,160.829 117.972 C 160.674 118.923,160.464 119.804,160.364 119.931 C 160.264 120.058,160.109 120.757,160.019 121.486 C 159.929 122.215,159.775 122.811,159.677 122.811 C 159.580 122.811,159.429 123.380,159.342 124.075 C 159.255 124.770,159.097 125.392,158.990 125.458 C 158.883 125.524,158.724 126.001,158.637 126.518 C 158.550 127.034,158.336 127.731,158.163 128.066 C 157.989 128.400,157.780 129.118,157.699 129.660 C 157.618 130.202,157.485 130.647,157.405 130.650 C 157.324 130.653,156.999 131.221,156.682 131.912 C 156.365 132.604,156.028 133.172,155.933 133.175 C 155.838 133.178,155.760 133.314,155.760 133.478 C 155.760 133.776,155.369 134.359,154.493 135.367 C 153.296 136.745,153.015 137.028,152.204 137.673 C 151.727 138.053,151.203 138.489,151.041 138.641 C 150.879 138.793,150.475 138.986,150.143 139.069 C 149.811 139.152,149.539 139.301,149.539 139.400 C 149.539 139.499,149.184 139.647,148.749 139.728 C 148.315 139.810,147.926 139.967,147.885 140.077 C 147.510 141.092,82.466 141.138,81.811 140.124 C 81.740 140.014,81.432 139.846,81.125 139.750 C 80.508 139.557,79.263 138.301,79.263 137.871 C 79.263 137.720,79.133 137.553,78.975 137.500 C 78.595 137.372,78.561 129.724,78.939 129.240 C 79.077 129.063,79.327 128.010,79.494 126.901 C 79.661 125.792,79.875 124.885,79.968 124.885 C 80.062 124.885,80.211 124.262,80.300 123.502 C 80.388 122.741,80.543 122.068,80.645 122.005 C 80.747 121.942,80.902 121.268,80.991 120.507 C 81.079 119.747,81.233 119.124,81.332 119.124 C 81.432 119.124,81.585 118.556,81.672 117.861 C 81.758 117.166,81.917 116.543,82.025 116.476 C 82.133 116.410,82.353 115.423,82.514 114.284 C 82.675 113.144,82.881 112.212,82.971 112.212 C 83.061 112.212,83.207 111.590,83.295 110.829 C 83.383 110.069,83.537 109.447,83.637 109.447 C 83.736 109.447,83.889 108.878,83.976 108.183 C 84.063 107.488,84.220 106.866,84.325 106.801 C 84.431 106.736,84.589 106.061,84.677 105.300 C 84.766 104.539,84.921 103.917,85.023 103.917 C 85.125 103.917,85.280 103.295,85.369 102.534 C 85.457 101.774,85.614 101.099,85.718 101.034 C 85.822 100.970,86.039 99.985,86.200 98.846 C 86.362 97.706,86.570 96.774,86.663 96.774 C 86.757 96.774,86.904 96.204,86.992 95.507 C 87.079 94.810,87.230 94.240,87.327 94.240 C 87.425 94.240,87.578 93.643,87.668 92.915 C 87.759 92.186,87.914 91.486,88.015 91.359 C 88.115 91.233,88.269 90.689,88.358 90.151 C 88.447 89.613,88.600 89.123,88.698 89.062 C 88.796 89.002,89.008 88.483,89.169 87.909 C 89.329 87.336,89.543 86.866,89.643 86.866 C 89.743 86.866,89.892 86.564,89.973 86.194 C 90.054 85.825,90.270 85.465,90.452 85.395 C 90.634 85.325,90.783 85.149,90.783 85.003 C 90.783 84.858,91.197 84.362,91.702 83.902 C 93.100 82.629,93.197 82.558,93.797 82.370 C 94.104 82.274,94.415 82.103,94.489 81.988 C 94.562 81.874,95.029 81.717,95.526 81.638 C 96.022 81.560,96.503 81.382,96.593 81.243 C 96.710 81.063,105.198 80.972,126.259 80.926 C 155.131 80.864,155.760 80.853,155.760 80.422 C 155.760 80.179,155.857 79.922,155.975 79.849 C 156.093 79.776,156.260 79.146,156.347 78.450 C 156.434 77.753,156.590 77.131,156.693 77.067 C 156.796 77.003,156.952 76.357,157.040 75.630 C 157.128 74.903,157.279 74.205,157.375 74.078 C 157.472 73.952,157.678 73.070,157.834 72.120 C 157.990 71.169,158.206 70.281,158.314 70.146 C 158.423 70.011,158.581 69.311,158.665 68.591 C 158.750 67.870,158.898 67.281,158.995 67.281 C 159.092 67.281,159.244 66.659,159.332 65.899 C 159.420 65.138,159.576 64.516,159.677 64.516 C 159.779 64.516,159.935 63.894,160.023 63.133 C 160.111 62.373,160.266 61.699,160.367 61.637 C 160.468 61.574,160.676 60.641,160.829 59.563 C 160.982 58.486,161.190 57.604,161.291 57.604 C 161.393 57.604,161.548 56.982,161.636 56.221 C 161.724 55.461,161.880 54.839,161.982 54.839 C 162.083 54.839,162.239 54.216,162.327 53.456 C 162.416 52.695,162.571 52.021,162.673 51.959 C 162.775 51.896,162.930 51.222,163.018 50.461 C 163.107 49.701,163.257 49.078,163.353 49.078 C 163.527 49.078,164.055 46.308,164.055 45.398 L 164.055 44.917 108.056 44.981 C 69.252 45.026,52.006 45.120,51.892 45.288 C 51.802 45.421,50.640 45.663,49.310 45.825 C 47.980 45.988,46.787 46.206,46.660 46.311 C 46.533 46.415,45.936 46.574,45.334 46.664 C 44.732 46.753,44.240 46.907,44.240 47.005 C 44.240 47.103,43.773 47.253,43.203 47.338 C 42.632 47.424,42.166 47.591,42.166 47.710 C 42.166 47.829,42.000 47.926,41.797 47.926 C 41.430 47.926,41.136 48.043,38.666 49.171 C 37.946 49.500,37.246 49.770,37.111 49.770 C 36.976 49.770,36.866 49.851,36.866 49.949 C 36.866 50.048,36.581 50.252,36.233 50.402 C 35.552 50.695,34.749 51.179,34.562 51.409 C 34.499 51.487,34.237 51.616,33.981 51.696 C 33.725 51.776,33.183 52.145,32.776 52.517 C 32.369 52.888,31.827 53.258,31.571 53.340 C 31.315 53.421,31.106 53.587,31.106 53.709 C 31.106 53.832,30.937 53.996,30.730 54.076 C 30.316 54.235,24.885 59.535,24.885 59.780 C 24.885 59.864,24.573 60.264,24.193 60.669 C 23.812 61.074,23.443 61.587,23.371 61.809 C 23.299 62.031,23.144 62.212,23.026 62.212 C 22.908 62.212,22.811 62.371,22.811 62.565 C 22.811 62.759,22.665 62.974,22.486 63.042 C 22.308 63.111,22.098 63.419,22.021 63.726 C 21.944 64.034,21.779 64.286,21.655 64.286 C 21.530 64.286,21.429 64.427,21.429 64.600 C 21.429 64.773,21.235 65.162,20.999 65.464 C 20.763 65.767,20.490 66.273,20.392 66.590 C 20.294 66.907,20.151 67.218,20.073 67.281 C 19.945 67.385,18.879 69.528,18.067 71.313 C 17.894 71.694,17.625 72.497,17.469 73.099 C 17.313 73.701,17.110 74.194,17.017 74.194 C 16.924 74.194,16.779 74.660,16.693 75.230 C 16.608 75.801,16.455 76.267,16.355 76.267 C 16.254 76.267,16.101 76.786,16.014 77.419 C 15.927 78.053,15.771 78.623,15.668 78.687 C 15.565 78.750,15.408 79.347,15.318 80.012 C 15.229 80.677,15.075 81.325,14.977 81.452 C 14.879 81.578,14.726 82.149,14.637 82.719 C 14.548 83.289,14.339 84.171,14.173 84.677 C 14.007 85.184,13.797 86.195,13.706 86.924 C 13.616 87.653,13.462 88.249,13.364 88.249 C 13.267 88.249,13.113 88.845,13.023 89.574 C 12.933 90.302,12.778 91.002,12.680 91.129 C 12.581 91.256,12.426 91.878,12.335 92.512 C 12.243 93.145,12.087 93.767,11.988 93.894 C 11.807 94.124,11.651 94.821,10.907 98.733 C 10.689 99.873,10.442 100.858,10.357 100.922 C 10.272 100.985,10.126 101.555,10.033 102.189 C 9.941 102.823,9.783 103.445,9.684 103.571 C 9.584 103.698,9.390 104.372,9.252 105.069 C 8.730 107.715,8.405 109.109,8.258 109.335 C 8.174 109.463,7.974 110.422,7.815 111.466 C 7.655 112.510,7.448 113.364,7.356 113.364 C 7.264 113.364,7.116 113.986,7.028 114.747 C 6.939 115.507,6.784 116.129,6.682 116.129 C 6.580 116.129,6.425 116.751,6.336 117.512 C 6.248 118.272,6.094 118.894,5.995 118.894 C 5.895 118.894,5.740 119.490,5.650 120.219 C 5.559 120.948,5.406 121.647,5.308 121.774 C 5.210 121.901,5.000 122.860,4.841 123.906 C 4.682 124.951,4.471 125.806,4.372 125.806 C 4.274 125.806,4.120 126.429,4.032 127.189 C 3.944 127.950,3.788 128.624,3.687 128.687 C 3.585 128.750,3.429 129.423,3.341 130.184 C 3.253 130.945,3.097 131.567,2.995 131.567 C 2.894 131.567,2.738 132.189,2.650 132.949 C 2.562 133.710,2.411 134.332,2.315 134.332 C 2.219 134.332,2.007 135.265,1.843 136.406 C 1.680 137.546,1.470 138.479,1.376 138.479 C 1.283 138.479,1.133 139.257,1.044 140.207 C 0.955 141.158,0.803 141.935,0.706 141.935 C 0.392 141.935,-0.003 147.699,-0.002 152.260 C -0.000 156.566,0.359 161.060,0.702 161.060 C 0.794 161.060,0.939 161.526,1.025 162.097 C 1.110 162.667,1.266 163.134,1.372 163.134 C 1.477 163.134,1.630 163.419,1.711 163.767 C 1.918 164.652,2.837 166.590,3.050 166.590 C 3.147 166.590,3.226 166.749,3.226 166.943 C 3.226 167.137,3.381 167.355,3.571 167.428 C 3.762 167.501,3.917 167.686,3.917 167.840 C 3.917 168.208,6.900 171.198,7.268 171.198 C 7.426 171.198,7.614 171.354,7.687 171.544 C 7.760 171.734,7.963 171.889,8.137 171.889 C 8.312 171.889,8.694 172.097,8.986 172.350 C 9.278 172.604,9.657 172.811,9.828 172.811 C 9.999 172.811,10.138 172.910,10.138 173.031 C 10.138 173.152,10.501 173.319,10.945 173.402 C 11.388 173.486,11.751 173.634,11.751 173.733 C 11.751 173.831,12.140 173.985,12.615 174.073 C 13.090 174.162,13.583 174.320,13.710 174.423 C 14.001 174.661,16.434 175.115,17.419 175.115 C 17.829 175.115,18.208 175.245,18.260 175.403 C 18.388 175.786,182.871 175.831,183.131 175.449 C 183.221 175.316,184.588 175.080,186.168 174.926 C 187.749 174.771,189.143 174.544,189.267 174.419 C 189.391 174.295,189.714 174.194,189.984 174.194 C 190.521 174.194,193.437 173.367,194.038 173.044 C 194.245 172.933,194.789 172.772,195.248 172.686 C 195.707 172.600,196.083 172.445,196.083 172.343 C 196.083 172.240,196.420 172.083,196.832 171.992 C 197.244 171.902,197.942 171.634,198.384 171.398 C 198.825 171.161,199.318 170.968,199.478 170.968 C 199.638 170.968,199.770 170.872,199.770 170.756 C 199.770 170.639,200.081 170.475,200.461 170.392 C 200.841 170.308,201.152 170.144,201.152 170.028 C 201.152 169.911,201.302 169.816,201.486 169.816 C 201.670 169.816,201.903 169.686,202.005 169.528 C 202.106 169.369,202.785 168.932,203.514 168.556 C 204.243 168.181,204.839 167.789,204.839 167.685 C 204.839 167.582,205.020 167.429,205.242 167.345 C 205.464 167.261,205.938 166.901,206.297 166.546 C 206.655 166.190,207.030 165.899,207.129 165.899 C 207.367 165.899,211.521 161.744,211.521 161.507 C 211.521 161.407,211.812 161.033,212.168 160.674 C 212.524 160.316,212.883 159.842,212.967 159.620 C 213.051 159.398,213.214 159.217,213.329 159.217 C 213.444 159.217,213.667 158.906,213.825 158.525 C 213.982 158.145,214.202 157.834,214.314 157.834 C 214.425 157.834,214.516 157.675,214.516 157.481 C 214.516 157.287,214.662 157.072,214.841 157.004 C 215.020 156.935,215.235 156.603,215.320 156.264 C 215.405 155.926,215.558 155.597,215.660 155.532 C 215.990 155.324,217.449 152.443,217.616 151.671 C 217.706 151.259,217.869 150.922,217.980 150.922 C 218.091 150.922,218.250 150.559,218.333 150.115 C 218.416 149.672,218.567 149.309,218.669 149.309 C 218.770 149.309,218.924 148.894,219.009 148.387 C 219.095 147.880,219.242 147.465,219.336 147.465 C 219.511 147.465,219.781 146.549,220.466 143.625 C 220.679 142.716,220.927 141.899,221.018 141.809 C 221.108 141.718,221.251 141.036,221.335 140.292 C 221.419 139.549,221.568 138.940,221.666 138.940 C 221.764 138.940,221.916 138.318,222.005 137.558 C 222.093 136.797,222.247 136.175,222.346 136.175 C 222.446 136.175,222.601 135.579,222.692 134.850 C 222.782 134.122,222.936 133.422,223.033 133.295 C 223.131 133.168,223.347 132.209,223.514 131.164 C 223.680 130.118,223.891 129.263,223.982 129.263 C 224.073 129.263,224.221 128.640,224.309 127.880 C 224.397 127.119,224.553 126.445,224.654 126.382 C 224.756 126.320,224.912 125.646,225.000 124.885 C 225.088 124.125,225.234 123.502,225.324 123.502 C 225.415 123.502,225.603 122.906,225.743 122.177 C 225.883 121.449,226.158 120.179,226.355 119.355 C 226.551 118.531,226.716 117.572,226.720 117.224 C 226.724 116.875,226.822 116.590,226.936 116.590 C 227.050 116.590,227.216 115.968,227.304 115.207 C 227.392 114.447,227.548 113.825,227.650 113.825 C 227.752 113.825,227.907 113.203,227.995 112.442 C 228.084 111.681,228.237 111.009,228.337 110.947 C 228.436 110.886,228.589 110.266,228.676 109.569 C 228.763 108.872,228.920 108.249,229.024 108.185 C 229.129 108.120,229.346 107.185,229.506 106.107 C 229.666 105.029,229.875 104.147,229.968 104.147 C 230.062 104.147,230.211 103.525,230.300 102.765 C 230.388 102.004,230.541 101.331,230.641 101.270 C 230.740 101.208,230.893 100.588,230.980 99.891 C 231.067 99.195,231.225 98.571,231.331 98.506 C 231.437 98.440,231.597 97.842,231.686 97.177 C 231.776 96.512,231.928 95.864,232.026 95.737 C 232.123 95.611,232.336 94.600,232.498 93.491 C 232.660 92.382,232.868 91.475,232.960 91.475 C 233.052 91.475,233.198 90.906,233.285 90.211 C 233.371 89.516,233.529 88.894,233.634 88.829 C 233.739 88.764,233.898 88.088,233.986 87.328 C 234.074 86.567,234.230 85.945,234.332 85.945 C 234.434 85.945,234.589 85.323,234.677 84.562 C 234.766 83.802,234.919 83.180,235.019 83.180 C 235.119 83.180,235.274 82.584,235.364 81.855 C 235.454 81.126,235.608 80.426,235.706 80.300 C 235.804 80.173,236.014 79.214,236.173 78.168 C 236.332 77.123,236.543 76.267,236.641 76.267 C 236.740 76.267,236.893 75.645,236.982 74.884 C 237.070 74.124,237.223 73.451,237.323 73.390 C 237.422 73.328,237.575 72.708,237.662 72.011 C 237.749 71.315,237.905 70.692,238.008 70.629 C 238.111 70.565,238.269 69.915,238.359 69.185 C 238.450 68.455,238.610 67.752,238.714 67.624 C 238.819 67.496,239.040 66.537,239.204 65.493 C 239.368 64.449,239.573 63.594,239.660 63.594 C 239.746 63.594,239.889 62.972,239.977 62.212 C 240.065 61.452,240.221 60.829,240.323 60.829 C 240.424 60.829,240.580 60.207,240.668 59.447 C 240.756 58.687,240.912 58.065,241.014 58.065 C 241.116 58.065,241.271 57.442,241.359 56.682 C 241.448 55.921,241.603 55.248,241.704 55.185 C 241.805 55.123,242.019 54.190,242.179 53.112 C 242.339 52.034,242.546 51.152,242.637 51.152 C 242.729 51.152,242.878 50.556,242.968 49.827 C 243.058 49.099,243.213 48.399,243.311 48.272 C 243.410 48.145,243.565 47.523,243.656 46.889 C 243.747 46.256,243.903 45.634,244.003 45.507 C 244.184 45.277,244.339 44.580,245.084 40.668 C 245.301 39.528,245.553 38.543,245.642 38.479 C 245.732 38.416,245.880 37.768,245.971 37.039 C 246.062 36.310,246.218 35.714,246.317 35.714 C 246.417 35.714,246.571 35.092,246.659 34.331 C 246.747 33.571,246.903 32.897,247.006 32.833 C 247.108 32.770,247.265 32.174,247.354 31.509 C 247.444 30.844,247.598 30.196,247.698 30.069 C 247.798 29.942,248.008 29.009,248.166 27.995 C 248.324 26.982,248.530 26.048,248.625 25.922 C 248.719 25.795,248.869 25.147,248.959 24.482 C 249.048 23.817,249.208 23.219,249.314 23.153 C 249.420 23.088,249.578 22.464,249.665 21.768 C 249.752 21.071,249.910 20.447,250.016 20.382 C 250.122 20.316,250.279 19.644,250.365 18.887 C 250.450 18.130,250.599 17.512,250.694 17.512 C 250.790 17.512,250.942 16.915,251.033 16.187 C 251.123 15.458,251.282 14.757,251.387 14.629 C 251.492 14.501,251.712 13.541,251.877 12.497 C 252.041 11.453,252.246 10.599,252.332 10.599 C 252.419 10.599,252.562 9.977,252.650 9.217 C 252.738 8.456,252.894 7.834,252.995 7.834 C 253.097 7.834,253.253 7.212,253.341 6.451 C 253.429 5.691,253.585 5.017,253.688 4.953 C 253.790 4.890,253.947 4.294,254.036 3.629 C 254.126 2.964,254.279 2.316,254.378 2.189 C 254.476 2.062,254.629 1.518,254.718 0.979 L 254.879 -0.000 221.910 -0.000 L 188.940 0.000 188.940 0.678 M258.217 45.104 C 258.159 45.199,257.977 46.080,257.813 47.062 C 257.648 48.044,257.441 48.848,257.351 48.848 C 257.261 48.848,257.116 49.470,257.028 50.231 C 256.939 50.991,256.781 51.667,256.675 51.732 C 256.570 51.797,256.413 52.421,256.326 53.117 C 256.239 53.814,256.083 54.436,255.980 54.500 C 255.877 54.563,255.721 55.186,255.634 55.882 C 255.547 56.579,255.395 57.199,255.297 57.260 C 255.198 57.321,254.986 58.253,254.826 59.331 C 254.665 60.408,254.455 61.290,254.357 61.290 C 254.260 61.290,254.109 61.861,254.022 62.558 C 253.935 63.255,253.782 63.825,253.683 63.825 C 253.583 63.825,253.429 64.447,253.341 65.207 C 253.253 65.968,253.097 66.590,252.995 66.590 C 252.894 66.590,252.738 67.212,252.650 67.973 C 252.561 68.733,252.407 69.407,252.306 69.469 C 252.205 69.532,251.991 70.465,251.830 71.543 C 251.670 72.620,251.462 73.502,251.368 73.502 C 251.274 73.502,251.125 74.124,251.037 74.885 C 250.949 75.645,250.795 76.267,250.695 76.267 C 250.595 76.267,250.443 76.838,250.356 77.535 C 250.269 78.232,250.113 78.802,250.010 78.802 C 249.907 78.802,249.749 79.398,249.659 80.127 C 249.569 80.855,249.414 81.555,249.316 81.682 C 249.217 81.809,249.020 82.535,248.879 83.295 C 248.737 84.055,248.465 85.244,248.274 85.937 C 248.083 86.630,247.926 87.428,247.926 87.709 C 247.926 87.991,247.832 88.280,247.717 88.351 C 247.603 88.422,247.435 89.024,247.346 89.689 C 247.257 90.354,247.104 91.002,247.008 91.129 C 246.911 91.256,246.758 91.878,246.666 92.512 C 246.575 93.145,246.419 93.767,246.320 93.894 C 246.220 94.021,246.025 94.695,245.886 95.392 C 245.363 98.018,244.810 100.354,244.657 100.589 C 244.569 100.723,244.426 101.371,244.339 102.029 C 244.252 102.687,244.100 103.226,244.002 103.226 C 243.904 103.226,243.752 103.848,243.664 104.609 C 243.575 105.369,243.417 106.045,243.311 106.110 C 243.206 106.175,243.049 106.798,242.962 107.495 C 242.875 108.192,242.723 108.812,242.624 108.873 C 242.525 108.934,242.313 109.866,242.153 110.943 C 241.992 112.021,241.786 112.903,241.695 112.903 C 241.603 112.903,241.457 113.472,241.370 114.167 C 241.283 114.862,241.123 115.486,241.014 115.553 C 240.905 115.620,240.745 116.244,240.658 116.939 C 240.571 117.634,240.420 118.203,240.323 118.203 C 240.225 118.203,240.071 118.799,239.981 119.528 C 239.891 120.256,239.736 120.956,239.636 121.083 C 239.536 121.210,239.322 122.091,239.161 123.041 C 238.999 123.992,238.789 124.873,238.695 125.000 C 238.600 125.127,238.448 125.749,238.357 126.382 C 238.265 127.016,238.110 127.638,238.012 127.765 C 237.913 127.892,237.759 128.592,237.668 129.320 C 237.578 130.049,237.420 130.645,237.317 130.645 C 237.214 130.645,237.059 131.217,236.971 131.915 C 236.884 132.614,236.732 133.236,236.633 133.297 C 236.534 133.358,236.322 134.290,236.162 135.367 C 236.002 136.445,235.791 137.327,235.694 137.327 C 235.597 137.327,235.446 137.897,235.359 138.594 C 235.272 139.291,235.119 139.862,235.019 139.862 C 234.919 139.862,234.766 140.484,234.677 141.245 C 234.589 142.005,234.433 142.679,234.331 142.743 C 234.228 142.806,234.071 143.402,233.981 144.067 C 233.892 144.732,233.754 145.380,233.675 145.507 C 233.520 145.758,232.860 148.599,232.444 150.806 C 232.301 151.567,232.112 152.241,232.023 152.304 C 231.934 152.368,231.785 152.938,231.692 153.571 C 231.600 154.205,231.444 154.827,231.347 154.954 C 231.249 155.081,231.103 155.692,231.022 156.313 C 230.941 156.934,230.785 157.556,230.675 157.696 C 230.565 157.835,230.400 158.364,230.309 158.871 C 230.218 159.378,230.061 159.896,229.961 160.023 C 229.862 160.150,229.705 160.513,229.614 160.829 C 229.439 161.435,227.852 164.779,227.645 164.977 C 227.579 165.040,227.393 165.351,227.231 165.668 C 226.504 167.089,226.227 167.512,226.024 167.512 C 225.904 167.512,225.806 167.652,225.806 167.823 C 225.806 167.995,225.573 168.393,225.288 168.709 C 225.003 169.024,224.459 169.678,224.078 170.161 C 222.994 171.538,218.861 175.576,218.535 175.576 C 218.446 175.576,217.947 175.944,217.424 176.394 C 216.078 177.554,215.945 177.650,215.689 177.650 C 215.564 177.650,215.378 177.780,215.276 177.938 C 215.175 178.097,214.781 178.382,214.401 178.571 C 214.021 178.761,213.658 178.968,213.594 179.032 C 213.484 179.141,212.234 179.835,210.714 180.629 C 210.334 180.828,209.970 181.060,209.906 181.145 C 209.841 181.230,209.478 181.377,209.099 181.470 C 208.495 181.620,207.387 182.096,206.192 182.722 C 205.986 182.830,205.441 182.988,204.982 183.074 C 204.523 183.161,204.147 183.312,204.147 183.410 C 204.147 183.509,203.759 183.662,203.283 183.751 C 202.808 183.840,202.316 183.998,202.189 184.102 C 202.062 184.206,201.285 184.413,200.461 184.562 C 199.637 184.711,198.859 184.916,198.733 185.018 C 198.606 185.119,197.828 185.277,197.005 185.369 C 196.181 185.460,195.361 185.653,195.184 185.798 C 194.947 185.989,187.976 186.078,169.274 186.127 C 141.822 186.199,143.204 186.129,142.952 187.468 C 142.871 187.900,142.718 188.308,142.611 188.374 C 142.504 188.440,142.295 189.113,142.146 189.869 C 141.997 190.625,141.797 191.244,141.701 191.244 C 141.605 191.244,141.459 191.603,141.376 192.041 C 141.294 192.479,141.076 193.127,140.891 193.481 C 140.707 193.835,140.555 194.242,140.554 194.386 C 140.554 194.530,140.398 194.945,140.209 195.308 C 140.019 195.671,139.864 196.137,139.863 196.345 C 139.862 196.552,139.709 197.016,139.523 197.375 C 139.336 197.735,139.117 198.473,139.036 199.015 C 138.954 199.557,138.805 200.000,138.704 200.000 C 138.603 200.000,138.450 200.415,138.364 200.922 C 138.278 201.429,138.114 201.843,137.998 201.843 C 137.883 201.843,137.788 202.061,137.788 202.327 C 137.788 202.593,137.635 203.137,137.448 203.537 C 136.999 204.494,135.945 207.756,135.945 208.187 C 135.945 208.373,135.853 208.525,135.740 208.525 C 135.628 208.525,135.466 208.992,135.381 209.562 C 135.295 210.132,135.134 210.599,135.023 210.599 C 134.912 210.599,134.751 211.066,134.665 211.636 C 134.580 212.206,134.426 212.673,134.324 212.673 C 134.222 212.673,134.068 212.991,133.983 213.380 C 133.897 213.768,133.682 214.364,133.505 214.704 C 133.328 215.044,133.181 215.530,133.180 215.783 C 133.178 216.037,133.021 216.543,132.831 216.908 C 132.640 217.274,132.420 217.974,132.342 218.464 C 132.263 218.954,132.118 219.355,132.018 219.355 C 131.919 219.355,131.768 219.770,131.682 220.276 C 131.596 220.783,131.432 221.198,131.316 221.198 C 131.201 221.198,131.106 221.416,131.106 221.682 C 131.106 221.948,130.953 222.492,130.766 222.891 C 130.317 223.849,129.263 227.111,129.263 227.542 C 129.263 227.728,129.171 227.880,129.058 227.880 C 128.946 227.880,128.784 228.347,128.699 228.917 C 128.613 229.487,128.446 229.954,128.327 229.954 C 128.208 229.954,128.111 230.058,128.111 230.184 C 128.111 230.876,236.095 230.413,236.982 229.718 C 237.108 229.619,237.808 229.464,238.537 229.374 C 239.266 229.283,239.862 229.134,239.862 229.043 C 239.862 228.951,240.587 228.746,241.474 228.588 C 242.361 228.429,243.144 228.205,243.216 228.090 C 243.287 227.975,243.572 227.880,243.850 227.879 C 244.128 227.878,244.644 227.726,244.998 227.542 C 245.352 227.357,246.000 227.139,246.438 227.057 C 246.876 226.974,247.235 226.827,247.235 226.728 C 247.235 226.630,247.598 226.481,248.041 226.398 C 248.485 226.314,248.848 226.147,248.848 226.026 C 248.848 225.905,249.029 225.806,249.251 225.804 C 249.473 225.803,250.173 225.547,250.806 225.236 C 251.440 224.924,252.088 224.666,252.247 224.662 C 252.405 224.658,252.535 224.559,252.535 224.442 C 252.535 224.326,252.846 224.162,253.226 224.078 C 253.606 223.995,253.917 223.831,253.917 223.714 C 253.917 223.598,254.065 223.502,254.246 223.502 C 254.427 223.502,254.712 223.373,254.880 223.214 C 255.047 223.056,255.755 222.633,256.452 222.275 C 258.533 221.205,259.092 220.867,259.286 220.565 C 259.387 220.406,259.620 220.276,259.804 220.276 C 259.988 220.276,260.138 220.185,260.138 220.074 C 260.138 219.963,260.449 219.743,260.829 219.585 C 261.210 219.428,261.521 219.208,261.521 219.096 C 261.521 218.985,261.653 218.894,261.815 218.894 C 261.977 218.894,262.271 218.713,262.468 218.491 C 262.841 218.070,263.904 217.188,265.106 216.303 C 266.280 215.438,266.531 215.205,269.786 211.977 C 271.513 210.263,273.341 208.354,273.848 207.736 C 274.355 207.117,274.998 206.341,275.278 206.013 C 275.557 205.684,276.304 204.689,276.937 203.802 C 277.570 202.915,278.197 202.064,278.330 201.911 C 278.463 201.758,278.571 201.581,278.571 201.518 C 278.571 201.455,278.986 200.811,279.493 200.087 C 280.000 199.364,280.415 198.681,280.415 198.570 C 280.415 198.459,280.544 198.213,280.703 198.024 C 280.861 197.835,281.094 197.553,281.221 197.398 C 281.348 197.243,281.763 196.495,282.143 195.735 C 282.523 194.976,282.904 194.302,282.989 194.237 C 283.074 194.173,283.214 193.836,283.302 193.488 C 283.389 193.141,283.541 192.857,283.641 192.857 C 283.740 192.857,283.892 192.573,283.979 192.226 C 284.067 191.879,284.214 191.542,284.306 191.477 C 284.601 191.271,286.118 188.110,286.283 187.358 C 286.371 186.961,286.529 186.636,286.636 186.636 C 286.743 186.636,286.900 186.318,286.985 185.929 C 287.070 185.540,287.285 184.944,287.463 184.604 C 287.640 184.264,287.786 183.805,287.787 183.583 C 287.787 183.361,287.883 183.180,288.000 183.180 C 288.117 183.180,288.282 182.862,288.367 182.473 C 288.453 182.084,288.668 181.488,288.845 181.148 C 289.023 180.808,289.172 180.323,289.177 180.069 C 289.182 179.816,289.386 179.194,289.631 178.687 C 289.876 178.180,290.080 177.538,290.084 177.260 C 290.089 176.982,290.187 176.697,290.303 176.625 C 290.418 176.554,290.583 176.082,290.668 175.576 C 290.754 175.070,290.908 174.604,291.012 174.540 C 291.116 174.476,291.272 173.905,291.359 173.272 C 291.447 172.639,291.602 172.068,291.706 172.004 C 291.809 171.940,292.019 171.136,292.172 170.218 C 292.324 169.300,292.529 168.445,292.627 168.318 C 292.725 168.191,292.879 167.543,292.968 166.878 C 293.058 166.213,293.217 165.615,293.323 165.550 C 293.429 165.484,293.587 164.861,293.674 164.164 C 293.761 163.467,293.915 162.847,294.015 162.785 C 294.115 162.723,294.270 162.128,294.359 161.463 C 294.448 160.798,294.600 160.150,294.696 160.023 C 294.792 159.896,295.000 158.935,295.160 157.887 C 295.319 156.840,295.533 155.931,295.635 155.868 C 295.737 155.805,295.891 155.184,295.978 154.489 C 296.065 153.794,296.220 153.226,296.322 153.226 C 296.424 153.226,296.579 152.552,296.667 151.728 C 296.756 150.904,296.909 150.230,297.009 150.230 C 297.108 150.230,297.262 149.608,297.350 148.848 C 297.438 148.088,297.587 147.465,297.681 147.465 C 297.775 147.465,297.989 146.584,298.157 145.507 C 298.324 144.430,298.538 143.548,298.632 143.548 C 298.726 143.548,298.875 142.926,298.963 142.165 C 299.051 141.405,299.207 140.731,299.309 140.668 C 299.411 140.605,299.566 139.932,299.654 139.171 C 299.743 138.410,299.896 137.788,299.996 137.788 C 300.096 137.788,300.248 137.219,300.335 136.524 C 300.422 135.829,300.585 135.204,300.697 135.135 C 300.809 135.066,300.971 134.388,301.057 133.628 C 301.142 132.869,301.292 132.199,301.389 132.139 C 301.486 132.079,301.696 131.148,301.856 130.070 C 302.017 128.993,302.227 128.111,302.325 128.111 C 302.422 128.111,302.573 127.539,302.660 126.840 C 302.747 126.142,302.906 125.516,303.012 125.451 C 303.118 125.385,303.275 124.713,303.360 123.956 C 303.446 123.200,303.594 122.581,303.690 122.581 C 303.786 122.581,303.938 121.984,304.028 121.256 C 304.118 120.527,304.274 119.827,304.373 119.700 C 304.473 119.574,304.687 118.692,304.849 117.742 C 305.010 116.791,305.220 115.910,305.314 115.783 C 305.408 115.657,305.559 114.957,305.650 114.228 C 305.740 113.499,305.895 112.903,305.995 112.903 C 306.094 112.903,306.248 112.281,306.336 111.521 C 306.425 110.760,306.571 110.138,306.661 110.138 C 306.821 110.138,306.939 109.628,307.752 105.415 C 307.972 104.274,308.223 103.289,308.311 103.226 C 308.398 103.162,308.547 102.540,308.641 101.843 C 308.735 101.146,308.883 100.524,308.971 100.461 C 309.059 100.397,309.258 99.724,309.414 98.963 C 309.992 96.152,310.257 95.040,310.406 94.813 C 310.490 94.685,310.689 93.726,310.849 92.682 C 311.009 91.638,311.215 90.783,311.308 90.783 C 311.400 90.783,311.548 90.161,311.636 89.401 C 311.724 88.640,311.883 87.964,311.988 87.899 C 312.094 87.834,312.251 87.212,312.338 86.517 C 312.424 85.822,312.575 85.253,312.673 85.253 C 312.770 85.253,312.924 84.657,313.014 83.929 C 313.104 83.200,313.261 82.500,313.363 82.373 C 313.464 82.247,313.676 81.313,313.834 80.300 C 313.992 79.286,314.203 78.350,314.304 78.220 C 314.404 78.090,314.558 77.442,314.646 76.780 C 314.734 76.118,314.886 75.576,314.984 75.576 C 315.082 75.576,315.234 74.954,315.323 74.194 C 315.411 73.433,315.566 72.811,315.668 72.811 C 315.770 72.811,315.926 72.189,316.014 71.428 C 316.102 70.668,316.256 69.995,316.355 69.934 C 316.455 69.872,316.607 69.252,316.694 68.555 C 316.781 67.858,316.938 67.235,317.043 67.171 C 317.147 67.106,317.364 66.171,317.525 65.093 C 317.685 64.016,317.893 63.134,317.987 63.134 C 318.081 63.134,318.230 62.511,318.318 61.751 C 318.406 60.990,318.560 60.318,318.659 60.256 C 318.759 60.195,318.911 59.574,318.998 58.878 C 319.085 58.181,319.246 57.556,319.355 57.488 C 319.464 57.421,319.624 56.796,319.711 56.099 C 319.798 55.403,319.953 54.781,320.054 54.718 C 320.156 54.656,320.371 53.672,320.532 52.533 C 320.694 51.393,320.896 50.461,320.982 50.461 C 321.068 50.461,321.211 49.919,321.298 49.257 C 321.386 48.595,321.552 47.940,321.667 47.802 C 321.782 47.663,321.945 46.961,322.029 46.241 L 322.183 44.931 290.253 44.931 C 272.691 44.931,258.275 45.009,258.217 45.104 M335.945 45.392 C 335.945 45.645,335.851 45.853,335.737 45.853 C 335.623 45.853,335.457 46.475,335.369 47.235 C 335.280 47.996,335.125 48.670,335.023 48.733 C 334.921 48.796,334.766 49.469,334.677 50.230 C 334.589 50.991,334.435 51.613,334.336 51.613 C 334.236 51.613,334.081 52.209,333.991 52.938 C 333.900 53.666,333.745 54.366,333.645 54.493 C 333.545 54.620,333.335 55.501,333.180 56.452 C 333.024 57.402,332.816 58.283,332.718 58.410 C 332.620 58.537,332.466 59.289,332.376 60.081 C 332.286 60.873,332.129 61.521,332.028 61.521 C 331.926 61.521,331.770 62.143,331.682 62.903 C 331.594 63.664,331.440 64.286,331.341 64.286 C 331.241 64.286,331.088 64.960,330.999 65.783 C 330.911 66.607,330.743 67.281,330.627 67.281 C 330.510 67.281,330.415 67.521,330.415 67.814 C 330.415 68.107,330.214 69.118,329.968 70.060 C 329.722 71.003,329.449 72.319,329.362 72.984 C 329.275 73.649,329.121 74.194,329.021 74.194 C 328.921 74.194,328.766 74.868,328.678 75.691 C 328.590 76.515,328.436 77.189,328.337 77.189 C 328.237 77.189,328.084 77.811,327.995 78.571 C 327.907 79.332,327.753 79.954,327.654 79.954 C 327.554 79.954,327.399 80.550,327.308 81.279 C 327.218 82.007,327.064 82.707,326.967 82.834 C 326.869 82.961,326.653 83.920,326.486 84.965 C 326.320 86.011,326.111 86.866,326.022 86.866 C 325.933 86.866,325.788 87.540,325.700 88.364 C 325.612 89.188,325.454 89.862,325.350 89.862 C 325.246 89.862,325.088 90.484,325.000 91.245 C 324.912 92.005,324.756 92.679,324.654 92.742 C 324.553 92.805,324.397 93.479,324.309 94.239 C 324.221 95.000,324.069 95.622,323.973 95.622 C 323.876 95.622,323.659 96.555,323.490 97.696 C 323.321 98.836,323.109 99.770,323.019 99.770 C 322.930 99.770,322.784 100.392,322.696 101.152 C 322.608 101.912,322.450 102.535,322.346 102.535 C 322.242 102.535,322.084 103.209,321.996 104.032 C 321.908 104.856,321.756 105.530,321.659 105.530 C 321.561 105.530,321.408 106.126,321.318 106.855 C 321.228 107.584,321.071 108.283,320.969 108.410 C 320.868 108.537,320.655 109.470,320.498 110.484 C 320.340 111.498,320.132 112.431,320.035 112.558 C 319.938 112.684,319.784 113.306,319.693 113.940 C 319.602 114.574,319.447 115.196,319.348 115.323 C 319.249 115.449,319.095 116.149,319.005 116.878 C 318.915 117.607,318.761 118.203,318.664 118.203 C 318.566 118.203,318.412 118.799,318.322 119.528 C 318.232 120.256,318.078 120.956,317.981 121.083 C 317.883 121.210,317.673 122.171,317.513 123.219 C 317.354 124.266,317.138 125.177,317.033 125.242 C 316.927 125.307,316.772 125.979,316.686 126.735 C 316.600 127.492,316.450 128.111,316.352 128.111 C 316.254 128.111,316.102 128.733,316.014 129.493 C 315.926 130.253,315.768 130.876,315.664 130.876 C 315.560 130.876,315.402 131.550,315.314 132.373 C 315.226 133.197,315.079 133.871,314.988 133.871 C 314.897 133.871,314.706 134.519,314.564 135.311 C 314.048 138.184,313.555 140.446,313.366 140.807 C 313.259 141.010,313.098 141.684,313.009 142.305 C 312.919 142.925,312.764 143.537,312.666 143.664 C 312.567 143.790,312.413 144.490,312.323 145.219 C 312.233 145.948,312.084 146.544,311.993 146.544 C 311.902 146.544,311.713 147.192,311.573 147.984 C 311.027 151.066,310.579 153.127,310.374 153.494 C 310.256 153.704,310.089 154.430,310.003 155.107 C 309.917 155.783,309.763 156.443,309.662 156.573 C 309.560 156.702,309.404 157.353,309.316 158.018 C 309.228 158.683,309.071 159.280,308.966 159.344 C 308.862 159.408,308.707 160.082,308.621 160.842 C 308.535 161.601,308.385 162.271,308.289 162.331 C 308.192 162.391,307.981 163.322,307.821 164.400 C 307.661 165.478,307.456 166.359,307.366 166.359 C 307.276 166.359,307.132 166.978,307.047 167.735 C 306.961 168.491,306.800 169.167,306.688 169.236 C 306.576 169.305,306.413 169.932,306.326 170.629 C 306.239 171.325,306.086 171.946,305.987 172.007 C 305.887 172.069,305.733 172.741,305.645 173.502 C 305.557 174.263,305.391 174.943,305.277 175.014 C 304.003 175.802,304.197 175.806,337.097 175.806 C 368.971 175.806,369.124 175.804,369.124 175.346 C 369.124 175.092,369.218 174.885,369.332 174.885 C 369.447 174.885,369.612 174.262,369.701 173.502 C 369.789 172.741,369.944 172.068,370.045 172.005 C 370.146 171.943,370.354 171.010,370.507 169.932 C 370.660 168.854,370.868 167.972,370.969 167.972 C 371.070 167.972,371.225 167.350,371.313 166.589 C 371.402 165.829,371.557 165.155,371.659 165.092 C 371.761 165.029,371.916 164.355,372.005 163.595 C 372.093 162.834,372.247 162.212,372.346 162.212 C 372.446 162.212,372.601 161.616,372.692 160.887 C 372.782 160.158,372.934 159.459,373.031 159.332 C 373.127 159.205,373.335 158.272,373.493 157.258 C 373.651 156.244,373.863 155.311,373.965 155.184 C 374.066 155.058,374.223 154.358,374.313 153.629 C 374.403 152.900,374.559 152.304,374.658 152.304 C 374.758 152.304,374.912 151.682,375.000 150.921 C 375.088 150.161,375.249 149.484,375.358 149.417 C 375.466 149.350,375.625 148.676,375.710 147.919 C 375.796 147.163,375.941 146.544,376.033 146.544 C 376.125 146.544,376.334 145.611,376.498 144.470 C 376.661 143.329,376.870 142.396,376.962 142.396 C 377.054 142.396,377.199 141.777,377.285 141.021 C 377.371 140.264,377.532 139.589,377.644 139.520 C 377.756 139.450,377.919 138.824,378.006 138.127 C 378.093 137.430,378.246 136.810,378.345 136.749 C 378.445 136.687,378.598 136.014,378.687 135.253 C 378.775 134.493,378.932 133.818,379.036 133.753 C 379.140 133.689,379.357 132.704,379.518 131.565 C 379.680 130.425,379.884 129.493,379.971 129.493 C 380.059 129.493,380.202 128.924,380.289 128.229 C 380.376 127.534,380.533 126.912,380.639 126.847 C 380.744 126.782,380.902 126.106,380.991 125.346 C 381.079 124.585,381.235 123.911,381.337 123.847 C 381.440 123.784,381.597 123.188,381.686 122.523 C 381.776 121.858,381.928 121.210,382.026 121.083 C 382.123 120.956,382.336 119.945,382.498 118.836 C 382.660 117.728,382.868 116.820,382.960 116.820 C 383.052 116.820,383.200 116.224,383.291 115.495 C 383.381 114.767,383.535 114.067,383.634 113.940 C 383.732 113.813,383.887 113.191,383.979 112.558 C 384.070 111.924,384.226 111.302,384.326 111.175 C 384.425 111.048,384.619 110.374,384.757 109.677 C 385.361 106.619,385.609 105.557,385.756 105.411 C 385.842 105.325,386.044 104.331,386.203 103.203 C 386.363 102.075,386.566 101.152,386.653 101.152 C 386.741 101.152,386.884 100.583,386.971 99.888 C 387.058 99.193,387.213 98.573,387.316 98.509 C 387.419 98.445,387.578 97.796,387.668 97.065 C 387.758 96.335,387.914 95.634,388.013 95.507 C 388.193 95.277,388.349 94.578,389.093 90.668 C 389.311 89.528,389.560 88.543,389.647 88.479 C 389.735 88.416,389.882 87.794,389.975 87.097 C 390.068 86.400,390.224 85.726,390.323 85.599 C 390.421 85.472,390.575 84.824,390.664 84.159 C 390.753 83.494,390.916 82.895,391.025 82.827 C 391.134 82.760,391.293 82.084,391.379 81.324 C 391.465 80.565,391.615 79.895,391.711 79.835 C 391.808 79.775,392.019 78.844,392.179 77.766 C 392.339 76.688,392.545 75.806,392.637 75.806 C 392.729 75.806,392.876 75.132,392.964 74.309 C 393.052 73.485,393.209 72.811,393.314 72.811 C 393.418 72.811,393.575 72.189,393.664 71.429 C 393.752 70.668,393.904 70.046,394.002 70.046 C 394.100 70.046,394.250 69.427,394.336 68.671 C 394.421 67.914,394.582 67.239,394.692 67.171 C 394.803 67.103,395.025 66.114,395.187 64.975 C 395.348 63.835,395.554 62.903,395.644 62.903 C 395.734 62.903,395.879 62.281,395.968 61.521 C 396.056 60.760,396.212 60.138,396.313 60.138 C 396.415 60.138,396.571 59.516,396.659 58.755 C 396.747 57.995,396.901 57.322,397.000 57.261 C 397.100 57.199,397.252 56.579,397.339 55.882 C 397.426 55.186,397.585 54.562,397.692 54.496 C 397.799 54.430,398.014 53.443,398.169 52.303 C 398.325 51.163,398.530 50.230,398.624 50.230 C 398.718 50.230,398.869 49.634,398.960 48.906 C 399.051 48.177,399.203 47.529,399.298 47.465 C 399.393 47.402,399.542 46.806,399.628 46.141 L 399.785 44.931 367.865 44.931 C 336.098 44.931,335.945 44.933,335.945 45.392 " stroke="none" fill="#0c74cc" fill-rule="evenodd"></path><path id="path1" d="" stroke="none" fill="#1074cc" fill-rule="evenodd"></path><path id="path2" d="" stroke="none" fill="#1074cc" fill-rule="evenodd"></path><path id="path3" d="" stroke="none" fill="#1074cc" fill-rule="evenodd"></path><path id="path4" d="" stroke="none" fill="#1074cc" fill-rule="evenodd"></path></g></svg>