<?xml version="1.0" encoding="utf-8"?>
<!-- Generator: Adobe Illustrator 23.0.1, SVG Export Plug-In . SVG Version: 6.00 Build 0)  -->
<svg version="1.1" id="圖層_1" xmlns="http://www.w3.org/2000/svg" xmlns:xlink="http://www.w3.org/1999/xlink" x="0px" y="0px"
	 width="251px" height="83px" viewBox="0 0 251 83" style="enable-background:new 0 0 251 83;" xml:space="preserve">
<style type="text/css">
	.st0{fill:#003974;}
	.st1{fill:#A78337;}
</style>
<g>
	<g>
		<path class="st0" d="M67.9,47v12.2h-2.6v-1.3H51.6v1.3H49v-12c-0.5,0.2-1.3,0.5-2.4,0.9l-1.3-2.5c3.4-0.8,6.4-2.3,8.9-4.4h-8.7
			v-2.3H57v-2.3c-4.2,0.1-7.2,0.2-9,0.2L47,34.1c1,0,2.4,0,3.9,0c7.4,0,13.1-0.4,16.9-1.3l1.2,2.3c-2.6,0.5-5.7,1-9.5,1.3v2.3h11.8
			v2.4h-9c2.1,2,5.2,3.5,9.2,4.3l-1.2,2.6c-0.4-0.2-0.8-0.3-1.2-0.5C68.7,47.3,68.3,47.2,67.9,47z M50.6,46.3H57v-5.1
			C55.3,43.5,53.2,45.2,50.6,46.3z M65.3,48.7H51.6v2.1h13.8V48.7z M51.6,55.5h13.8v-2.5H51.6C51.6,53.1,51.6,55.5,51.6,55.5z
			 M59.6,41.1v5.2h6.9C63.7,45.2,61.4,43.5,59.6,41.1z"/>
		<path class="st0" d="M87.1,50.5c-0.8,3-2,5.8-3.6,8.4l-2.3-2.3c1.6-2.3,2.8-4.8,3.3-7.5L87.1,50.5z M85.3,45.9
			c-1.5-1.3-2.8-2.3-3.9-3l1.7-2.1c1.3,0.7,2.7,1.6,4.1,2.7L85.3,45.9z M88,35.9h3.7V33h2.6v2.9h5.1V33h2.5v2.9h4.6v2.2h-4.6V41h5.1
			v2.3h-5.4c0.8,1.5,2.6,3,5.6,4.5l-1.2,2.5c-1.7-1-3.1-2-4.3-3.1v5.7h-9v1.8c0,0.7,0.3,1,1,1h8.3c0.8,0,1.3-0.3,1.4-0.9
			c0.2-0.6,0.3-1.6,0.4-3.1l2.7,1c-0.3,2.6-0.7,4.1-1.2,4.7c-0.5,0.5-1.5,0.8-2.9,0.8h-9.1c-1.2,0-2-0.2-2.5-0.7
			c-0.5-0.5-0.7-1.3-0.7-2.6v-6.3c-0.5,0.4-1.3,1-2.6,1.8L86,48.1c3.1-1.4,5.1-3,5.9-4.7h-4.4v-2.3h4.3v-2.8H88v-1.5l-1.7,2.1
			c-1.5-1.4-2.9-2.5-4.2-3.3l1.8-2.1c1.6,1,2.9,1.9,4,2.8L88,35.9L88,35.9z M92.8,48.1v2.8h6.4v-2.8H92.8z M94.9,43.4
			c-0.4,1-1,1.8-1.6,2.5h7.2c-0.6-0.7-1.2-1.5-1.7-2.5H94.9z M94.3,38.3V41h5.1v-2.8H94.3z"/>
		<path class="st0" d="M122.3,36.8c-1,0.2-2.4,0.3-4.4,0.5l-0.6-2.3c4.2-0.2,7.8-0.9,10.8-2l1,2.3c-1.3,0.5-2.8,0.8-4.2,1.1v3.9h4.3
			v2.4h-4.3V43c2.1,1.9,3.7,3.5,4.7,4.6l-1.6,2.4c-0.5-0.8-1.1-1.5-1.7-2.1c-0.5-0.6-1-1.2-1.5-1.9v13l-2.6,0.1V47.6
			c-0.7,1.8-2,3.9-3.8,6.3l-1.5-2.5c2.3-2.7,4.1-5.6,5.3-8.7h-5.1v-2.4h5.2L122.3,36.8L122.3,36.8z M128.8,52.9v-2.6l9.4-1.4V32.8
			h2.6v15.8l2.5-0.4v2.6l-2.5,0.4v8h-2.6v-7.7L128.8,52.9z M135,47.2c-1.9-1.6-3.6-2.8-5.1-3.7l1.6-1.9c1.4,0.7,3.1,1.9,5.2,3.4
			L135,47.2z M135.5,40.4c-2.1-1.7-3.8-2.9-5.1-3.7l1.7-1.8c1.2,0.7,2.9,1.8,5.1,3.4L135.5,40.4z"/>
		<path class="st0" d="M163.3,41.1H160v5c1.5-0.5,2.6-0.9,3.3-1.2v2.8c-0.6,0.3-1.7,0.8-3.3,1.3v6.9c0,1.3-0.2,2.2-0.5,2.6
			c-0.4,0.5-1.3,0.7-2.7,0.7h-2.2l-0.6-2.8l2.4,0.1c0.6,0,0.9-0.3,0.9-0.9v-5.8c-1.6,0.4-2.8,0.7-3.8,1l-0.7-3
			c1.6-0.2,3.1-0.5,4.4-0.8v-5.6h-4.1v-2.6h4.1v-5.7h2.8v5.7h3.3v-1.8h6v-3.9h2.8v3.9h6.6v2.6h-6.6V43h5.6v2.3
			c-0.3,1-0.9,2.3-1.8,3.9c-1,1.6-2,2.9-3.1,3.8c1.9,1.5,4,2.6,6.3,3.3l-1.4,2.6c-2.5-0.8-4.8-2.2-6.9-4.2c-3,2.3-5.8,3.7-8.5,4.2
			l-1.5-2.6c2.7-0.6,5.4-1.8,8.1-3.6c-1.4-1.5-2.8-3.4-4.2-6L167,46c1.3,2.3,2.6,4.1,3.8,5.4c1.9-1.5,3.3-3.4,4.1-5.8h-11.1V43h5.6
			v-3.8h-6L163.3,41.1z"/>
		<path class="st0" d="M205.4,42.7c0.4,2.3,1.4,4.7,3,7.2c1.6,2.5,3.8,4.7,6.6,6.5l-2.2,2.6c-5.1-3.3-8.5-8.7-10.4-16.2h-0.4
			c-1.3,6.7-5,12.2-11.3,16.3l-2.1-2.7c2.6-1.5,4.9-3.5,6.8-6c1.9-2.5,3.1-5,3.5-7.7h-9.7v-3h10.1c0.3-1.7,0.4-4.1,0.4-7h2.9
			c0,3.2-0.1,5.6-0.2,7h11.9v3L205.4,42.7z"/>
		<path class="st0" d="M245.4,48v2c-1.6,0.9-3.7,1.7-6.1,2.4H251v2.3h-11.6v1.2c0,2-0.8,3-2.6,3h-4.1l-0.6-2.3l3.8,0.1
			c0.5,0,0.8-0.3,0.8-0.8v-1.2h-12.2v-2.3h12.2v-1.2c1.3-0.2,2.9-0.6,4.9-1.2h-11.8V48H245.4z M247.9,46.8h-20.2v4.1h-2.5v-6.3h1.4
			l-0.3-10.8c2.4-0.1,4.5-0.3,6.1-0.8l1.2,2.1c-1,0.4-2.7,0.6-5,0.8l0.1,1.4h4.4v1.9h-4.3l0,1.6h4.3v1.9H229l0,1.9h17.5l0-1.9h-3.9
			v-1.9h4l0-1.6h-4.1v-1.9h4.1l0-1.5h-4.4v-2.2h6.9L249,44.6h1.5v6.3h-2.5L247.9,46.8L247.9,46.8z M238.2,36.7
			c-0.9,0.6-2,1.2-3.3,1.7l-1.4-1.9c1.5-0.4,2.6-0.8,3.1-1.1c-0.5-0.4-1.1-0.8-1.9-1.3l1.5-1.3c0.7,0.5,1.5,1,2.2,1.5
			c0.8-0.5,1.4-1,1.7-1.5l1.4,1.3c-0.4,0.5-1,1-1.7,1.5c0.4,0.3,0.9,0.8,1.5,1.5l-1.7,1.3C238.9,37.3,238.4,36.7,238.2,36.7z
			 M238.4,42.4c-0.9,0.6-2,1.1-3.3,1.5l-1.2-1.9c1.3-0.3,2.3-0.6,2.9-1c-0.4-0.3-1-0.7-1.9-1.3l1.5-1.2c0.3,0.3,0.7,0.5,1,0.6
			c0.3,0.3,0.8,0.5,1.2,0.9c0.5-0.4,1.2-0.9,1.9-1.8l1.5,1.3c-0.7,0.7-1.3,1.3-1.9,1.7c0.5,0.5,1.1,1,1.6,1.5l-1.8,1.4
			C239,43,238.5,42.4,238.4,42.4z"/>
	</g>
	<g>
		<g>
			<path class="st1" d="M24.7,66.1L19,56.5c0,0-0.2-0.2-0.2-0.6v-0.2v-0.5V38.1h-2.2V56v0.5c0.2,0.2,3.8,6.4,3.8,6.4h-9
				c0,0,3.6-6.2,3.8-6.4V56V38.1H13v17.1v0.5V56c0,0.4-0.2,0.6-0.2,0.6l-5.8,9.6L24.7,66.1L24.7,66.1z"/>
		</g>
		<g>
			<path class="st1" d="M22.9,25.7c0,0,1.1-4.5-2.8-7.4c0,0-1.5-1.4-4.5-1.4c-2.6,0-4.2,1.4-4.2,1.4c-3.6,2.5-2.6,7.4-2.6,7.4H22.9z
				"/>
			<path class="st1" d="M9.3,26.9h13.3c0.1-0.3,0.2-0.5,0.3-0.8H9C9.1,26.4,9.2,26.7,9.3,26.9z"/>
			<path class="st1" d="M22.3,27.4H9.5c0.1,0.3,0.3,0.5,0.5,0.8h11.9C22,27.9,22.2,27.6,22.3,27.4z"/>
			<path class="st1" d="M10.8,29.2H21c0.2-0.2,0.4-0.4,0.5-0.6H10.2C10.4,28.8,10.6,29,10.8,29.2z"/>
			<path class="st1" d="M11.9,30.1h8c0.2-0.1,0.4-0.3,0.6-0.5h-9.2C11.5,29.8,11.7,30,11.9,30.1z"/>
			<path class="st1" d="M13,30.8c0.9,0.4,1.9,0.6,2.9,0.6c1,0,2-0.2,2.9-0.6H13z"/>
		</g>
		<path class="st0" d="M29.6,31.7H18.8c0,0-1,0-1.8,0.5c-0.6,0.4-1,1.4-1.1,1.5l0,0c0,0-0.5-1-1.1-1.5C14,31.7,13,31.7,13,31.7H2.2
			L0,35.2h9.9c0,0,0.3,0,0.5,0c0.3,0,0.8,0.2,1.3,0.6c0.8,0.5,1,0.8,1.1,1c0.1,0.1,0.3,0.4,0.3,0.4h2.4h0.3l0,0h0.8h1.9
			c0,0,0.3-0.3,0.3-0.4c0.2-0.2,0.4-0.5,1.1-1c0.5-0.4,1-0.5,1.3-0.6c0.2,0,0.5,0,0.5,0h9.9L29.6,31.7z"/>
		<g>
			<g>
				<path class="st0" d="M1.1,36.2v16.3c0,0,0,0.2,0,0.2c0,0.2,0,0.3,0,0.5c0.2,1.8,0.7,3,1.7,4.7c1.6,2.6,4.5,4.5,4.5,4.5l1.4-2.2
					c0,0-1.8-1-3.3-3.2c-0.3-0.5-0.6-0.9-0.8-1.3c-0.2-0.4-0.3-0.7-0.5-1C4,54.4,3.9,54.2,3.9,54c-0.1-0.3-0.1-0.5-0.1-0.8
					c0-0.1,0-0.5,0-0.5v-0.1V36.2H1.1z"/>
				<path class="st0" d="M5.2,36.2v16.4c0,0,0,0.1,0,0.1c0,0.1,0,0.2,0,0.3c0,0,0,0.1,0,0.2c0,0.3,0.1,0.5,0.2,0.8
					c0.2,0.5,0.5,1.2,1,2c1.2,2,3,2.9,3,2.9l1.3-2.1c0,0-0.5-0.3-1-0.8c-0.4-0.3-0.8-0.8-1.2-1.3c-0.4-0.5-0.6-1.1-0.7-1.5
					c-0.1-0.3-0.1-0.6-0.1-0.8c0-0.2,0-0.3,0-0.3V36.2H5.2z"/>
			</g>
			<g>
				<path class="st0" d="M30.7,36.2v16.3c0,0,0,0.2,0,0.2c0,0.2,0,0.3,0,0.5c-0.2,1.8-0.7,3-1.7,4.7c-1.6,2.6-4.5,4.5-4.5,4.5
					l-1.4-2.2c0,0,1.8-1,3.3-3.2c0.3-0.5,0.6-0.9,0.8-1.3c0.2-0.4,0.3-0.7,0.5-1c0.1-0.3,0.2-0.5,0.2-0.7c0.1-0.3,0.1-0.5,0.1-0.8
					c0-0.1,0-0.5,0-0.5v-0.1V36.2H30.7z"/>
				<path class="st0" d="M26.6,36.2v16.4c0,0,0,0.1,0,0.1c0,0.1,0,0.2,0,0.3c0,0,0,0.1,0,0.2c0,0.3-0.1,0.5-0.2,0.8
					c-0.2,0.5-0.5,1.2-1,2c-1.2,2-3,2.9-3,2.9L21,56.9c0,0,0.5-0.3,1-0.8c0.4-0.3,0.8-0.8,1.2-1.3c0.4-0.5,0.6-1.1,0.7-1.5
					c0.1-0.3,0.1-0.6,0.1-0.8c0-0.2,0-0.3,0-0.3V36.2H26.6z"/>
			</g>
		</g>
	</g>
</g>
</svg>
