<svg id="svg" version="1.1" xmlns="http://www.w3.org/2000/svg" xmlns:xlink="http://www.w3.org/1999/xlink" width="400" height="553.2710280373832" viewBox="0, 0, 400,553.2710280373832"><g id="svgg"><path id="path0" d="M198.000 46.741 C 198.000 46.928,196.538 47.194,194.752 47.332 C 192.965 47.470,191.300 47.749,191.052 47.953 C 190.803 48.156,189.565 48.451,188.300 48.608 C 187.035 48.764,186.000 49.028,186.000 49.195 C 186.000 49.361,185.280 49.613,184.400 49.754 C 183.520 49.894,182.800 50.187,182.800 50.405 C 182.800 50.622,182.440 50.800,182.000 50.800 C 181.560 50.800,181.200 50.980,181.200 51.200 C 181.200 51.420,181.065 51.570,180.900 51.534 C 180.331 51.410,178.400 52.087,178.400 52.412 C 178.400 52.590,177.860 52.855,177.200 53.000 C 176.540 53.145,176.000 53.415,176.000 53.600 C 176.000 53.785,175.460 54.055,174.800 54.200 C 174.140 54.345,173.600 54.610,173.600 54.788 C 173.600 54.967,173.150 55.226,172.600 55.364 C 172.050 55.502,171.600 55.792,171.600 56.008 C 171.600 56.223,171.330 56.400,171.000 56.400 C 170.670 56.400,170.400 56.568,170.400 56.773 C 170.400 56.978,170.003 57.272,169.517 57.426 C 169.032 57.580,168.182 58.223,167.628 58.853 C 167.075 59.484,166.474 60.000,166.293 60.000 C 166.113 60.000,165.480 60.450,164.887 61.000 C 164.293 61.550,163.626 62.008,163.404 62.017 C 163.182 62.026,162.558 62.566,162.019 63.217 C 161.479 63.868,160.886 64.400,160.702 64.400 C 159.952 64.400,156.000 68.352,156.000 69.102 C 156.000 69.286,155.468 69.879,154.817 70.419 C 154.166 70.958,153.626 71.582,153.617 71.804 C 153.608 72.026,153.150 72.693,152.600 73.287 C 152.050 73.880,151.600 74.559,151.600 74.795 C 151.600 75.032,151.341 75.324,151.024 75.446 C 150.708 75.567,150.334 76.192,150.193 76.833 C 150.052 77.475,149.774 78.000,149.576 78.000 C 149.378 78.000,149.102 78.450,148.964 79.000 C 148.826 79.550,148.553 80.000,148.357 80.000 C 148.160 80.000,148.000 80.270,148.000 80.600 C 148.000 80.930,147.822 81.200,147.605 81.200 C 147.387 81.200,147.094 81.920,146.954 82.800 C 146.813 83.680,146.543 84.400,146.354 84.400 C 146.164 84.400,145.894 85.120,145.754 86.000 C 145.613 86.880,145.361 87.600,145.194 87.600 C 145.027 87.600,144.769 88.410,144.621 89.400 C 144.472 90.390,144.182 91.200,143.975 91.200 C 143.769 91.200,143.600 91.650,143.600 92.200 C 143.600 92.750,143.434 93.200,143.232 93.200 C 143.029 93.200,142.735 94.415,142.579 95.900 C 142.422 97.385,142.149 98.694,141.971 98.809 C 141.794 98.923,141.522 101.308,141.366 104.109 C 141.210 106.909,140.929 109.200,140.742 109.200 C 140.554 109.200,140.400 111.720,140.400 114.800 C 140.400 118.109,140.557 120.400,140.784 120.400 C 140.995 120.400,141.220 121.885,141.284 123.700 L 141.400 127.000 206.300 127.101 C 262.138 127.188,271.200 127.123,271.200 126.635 C 271.200 126.322,271.425 125.992,271.700 125.900 C 272.380 125.673,272.431 100.518,271.753 100.085 C 271.507 99.928,271.178 98.585,271.021 97.100 C 270.865 95.615,270.591 94.400,270.414 94.400 C 270.236 94.400,269.969 93.590,269.821 92.600 C 269.672 91.610,269.399 90.800,269.213 90.800 C 269.027 90.800,268.751 89.900,268.600 88.800 C 268.449 87.700,268.162 86.800,267.962 86.800 C 267.763 86.800,267.600 86.530,267.600 86.200 C 267.600 85.870,267.434 85.600,267.232 85.600 C 267.029 85.600,266.745 85.060,266.600 84.400 C 266.455 83.740,266.185 83.200,266.000 83.200 C 265.815 83.200,265.545 82.660,265.400 82.000 C 265.255 81.340,264.990 80.800,264.812 80.800 C 264.633 80.800,264.374 80.350,264.236 79.800 C 264.098 79.250,263.822 78.800,263.624 78.800 C 263.426 78.800,263.153 78.295,263.017 77.678 C 262.881 77.060,262.417 76.301,261.985 75.989 C 261.553 75.678,261.200 75.187,261.200 74.899 C 261.200 74.611,260.937 74.274,260.615 74.150 C 260.294 74.027,259.910 73.538,259.762 73.063 C 259.615 72.588,258.528 71.274,257.347 70.143 C 256.166 69.012,255.200 67.893,255.200 67.657 C 255.200 67.421,254.840 67.035,254.399 66.800 C 253.959 66.564,252.461 65.239,251.071 63.856 C 249.681 62.472,248.241 61.225,247.872 61.083 C 247.502 60.941,247.200 60.652,247.200 60.440 C 247.200 60.227,246.795 59.927,246.300 59.771 C 245.805 59.616,245.023 59.085,244.562 58.591 C 244.102 58.097,243.337 57.570,242.862 57.420 C 242.388 57.269,242.000 56.978,242.000 56.773 C 242.000 56.568,241.730 56.400,241.400 56.400 C 241.070 56.400,240.800 56.223,240.800 56.008 C 240.800 55.792,240.350 55.502,239.800 55.364 C 239.250 55.226,238.800 54.967,238.800 54.788 C 238.800 54.610,238.260 54.345,237.600 54.200 C 236.940 54.055,236.400 53.790,236.400 53.612 C 236.400 53.433,235.907 53.163,235.304 53.012 C 234.701 52.860,234.116 52.616,234.004 52.468 C 233.565 51.891,231.233 50.800,230.438 50.800 C 229.977 50.800,229.600 50.640,229.600 50.445 C 229.600 50.250,228.790 49.969,227.800 49.821 C 226.810 49.672,226.000 49.405,226.000 49.227 C 226.000 49.049,224.877 48.776,223.505 48.621 C 222.132 48.466,220.912 48.182,220.794 47.990 C 220.676 47.799,218.919 47.517,216.889 47.364 C 214.860 47.211,213.200 46.931,213.200 46.743 C 213.200 46.554,209.780 46.400,205.600 46.400 C 201.420 46.400,198.000 46.553,198.000 46.741 M142.568 132.900 C 142.716 133.835,143.009 134.660,143.219 134.733 C 143.428 134.807,143.600 135.122,143.600 135.433 C 143.600 135.745,143.757 136.000,143.949 136.000 C 144.141 136.000,144.413 136.720,144.554 137.600 L 144.809 139.200 206.561 139.200 L 268.313 139.200 268.564 138.200 C 268.702 137.650,268.981 137.200,269.183 137.200 C 269.385 137.200,269.672 136.390,269.821 135.400 C 269.969 134.410,270.250 133.600,270.445 133.600 C 270.640 133.600,270.800 133.060,270.800 132.400 L 270.800 131.200 206.549 131.200 L 142.298 131.200 142.568 132.900 M148.000 143.800 C 148.000 144.350,148.160 144.800,148.357 144.800 C 148.553 144.800,148.835 145.286,148.984 145.880 C 149.133 146.474,149.693 147.365,150.228 147.861 C 150.762 148.356,151.200 149.040,151.200 149.381 C 151.200 150.468,260.648 150.308,260.994 149.220 C 261.130 148.792,261.591 148.330,262.020 148.194 C 262.448 148.058,262.905 147.522,263.035 147.002 C 263.166 146.483,263.526 145.961,263.836 145.841 C 264.146 145.722,264.400 145.349,264.400 145.013 C 264.400 144.676,264.580 144.400,264.800 144.400 C 265.020 144.400,265.200 144.040,265.200 143.600 C 265.200 142.804,264.933 142.800,206.600 142.800 L 148.000 142.800 148.000 143.800 M156.800 155.660 C 156.800 156.132,157.467 157.167,158.283 157.960 L 159.766 159.400 205.883 159.505 C 251.664 159.609,252.004 159.604,252.689 158.805 C 253.068 158.362,253.531 158.000,253.717 158.000 C 254.307 158.000,255.151 156.936,255.424 155.848 L 255.687 154.800 206.243 154.800 L 156.800 154.800 156.800 155.660 M167.200 165.229 C 167.200 165.911,168.789 167.165,170.700 167.991 C 171.195 168.205,171.600 168.565,171.600 168.790 C 171.600 169.067,182.716 169.200,205.800 169.200 C 225.478 169.200,240.000 169.049,240.000 168.845 C 240.000 168.649,240.613 168.374,241.361 168.234 C 242.110 168.093,242.824 167.713,242.949 167.389 C 243.073 167.065,243.373 166.800,243.616 166.800 C 244.180 166.800,245.200 165.788,245.200 165.229 C 245.200 164.927,233.667 164.800,206.200 164.800 C 178.733 164.800,167.200 164.927,167.200 165.229 M182.400 174.367 C 182.400 175.347,182.977 176.000,183.843 176.000 C 184.369 176.000,184.800 176.160,184.800 176.355 C 184.800 176.550,185.610 176.831,186.600 176.979 C 187.590 177.128,188.400 177.404,188.400 177.593 C 188.400 177.782,189.615 178.065,191.100 178.221 C 192.585 178.378,193.929 178.707,194.086 178.953 C 194.497 179.597,218.721 179.575,219.119 178.931 C 219.277 178.676,220.709 178.339,222.303 178.182 C 223.896 178.025,225.200 177.753,225.200 177.577 C 225.200 177.401,226.190 177.134,227.400 176.983 C 228.610 176.832,229.600 176.549,229.600 176.354 C 229.600 176.159,229.870 176.000,230.200 176.000 C 230.530 176.000,230.800 175.820,230.800 175.600 C 230.800 175.380,231.070 175.200,231.400 175.200 C 231.730 175.200,232.000 174.930,232.000 174.600 C 232.000 174.073,228.978 174.000,207.200 174.000 C 192.406 174.000,182.400 174.148,182.400 174.367 M180.400 322.400 C 180.400 368.203,180.250 402.000,180.047 402.000 C 179.852 402.000,179.569 403.156,179.418 404.568 C 179.241 406.224,178.940 407.214,178.572 407.356 C 178.257 407.476,178.000 407.851,178.000 408.187 C 178.000 408.524,177.823 408.800,177.608 408.800 C 177.392 408.800,177.102 409.250,176.964 409.800 C 176.826 410.350,176.572 410.800,176.400 410.800 C 176.228 410.800,175.974 411.250,175.836 411.800 C 175.698 412.350,175.408 412.800,175.192 412.800 C 174.977 412.800,174.800 413.070,174.800 413.400 C 174.800 413.730,174.640 414.000,174.443 414.000 C 174.247 414.000,173.974 414.450,173.836 415.000 C 173.698 415.550,173.422 416.000,173.224 416.000 C 173.026 416.000,172.745 416.540,172.600 417.200 C 172.455 417.860,172.179 418.400,171.987 418.400 C 171.795 418.400,171.324 419.075,170.940 419.900 C 170.557 420.725,170.008 421.544,169.722 421.720 C 169.435 421.896,169.200 422.301,169.200 422.620 C 169.200 422.939,169.040 423.200,168.843 423.200 C 168.647 423.200,168.374 423.650,168.236 424.200 C 168.098 424.750,167.822 425.200,167.624 425.200 C 167.426 425.200,167.145 425.740,167.000 426.400 C 166.855 427.060,166.583 427.600,166.395 427.600 C 166.207 427.600,165.926 428.005,165.770 428.500 C 165.613 428.995,165.165 429.625,164.774 429.900 C 164.383 430.176,163.948 430.926,163.807 431.567 C 163.666 432.208,163.292 432.833,162.976 432.954 C 162.659 433.076,162.400 433.451,162.400 433.787 C 162.400 434.124,162.220 434.400,162.000 434.400 C 161.780 434.400,161.600 434.657,161.600 434.971 C 161.600 435.286,161.354 435.789,161.053 436.090 C 160.752 436.391,160.366 437.079,160.196 437.619 C 160.025 438.158,159.577 438.870,159.200 439.200 C 158.823 439.530,158.375 440.242,158.204 440.781 C 158.034 441.321,157.648 442.009,157.347 442.310 C 157.046 442.611,156.800 443.114,156.800 443.429 C 156.800 443.743,156.620 444.000,156.400 444.000 C 156.180 444.000,156.000 444.276,156.000 444.613 C 156.000 444.949,155.735 445.327,155.411 445.451 C 155.087 445.576,154.708 446.284,154.569 447.025 C 154.418 447.827,154.020 448.467,153.586 448.604 C 153.184 448.732,152.739 449.368,152.596 450.018 C 152.453 450.668,152.174 451.200,151.976 451.200 C 151.778 451.200,151.502 451.650,151.364 452.200 C 151.226 452.750,150.953 453.200,150.757 453.200 C 150.560 453.200,150.400 453.457,150.400 453.771 C 150.400 454.086,150.154 454.589,149.853 454.890 C 149.552 455.191,149.166 455.879,148.996 456.419 C 148.825 456.958,148.363 457.681,147.970 458.024 C 147.576 458.367,147.135 459.119,146.991 459.695 C 146.846 460.271,146.474 460.839,146.164 460.959 C 145.854 461.078,145.600 461.451,145.600 461.787 C 145.600 462.124,145.420 462.400,145.200 462.400 C 144.980 462.400,144.800 462.766,144.800 463.213 C 144.800 463.659,144.546 464.122,144.236 464.241 C 143.926 464.361,143.563 464.895,143.428 465.429 C 143.294 465.963,143.008 466.400,142.792 466.400 C 142.577 466.400,142.400 466.670,142.400 467.000 C 142.400 467.330,142.240 467.600,142.043 467.600 C 141.847 467.600,141.574 468.050,141.436 468.600 C 141.298 469.150,141.022 469.600,140.824 469.600 C 140.626 469.600,140.348 470.125,140.207 470.767 C 140.066 471.408,139.692 472.033,139.376 472.154 C 139.059 472.276,138.800 472.651,138.800 472.987 C 138.800 473.324,138.620 473.600,138.400 473.600 C 138.180 473.600,138.000 473.941,138.000 474.357 C 138.000 474.774,137.730 475.218,137.400 475.345 C 137.070 475.471,136.800 475.851,136.800 476.187 C 136.800 476.524,136.640 476.800,136.443 476.800 C 136.247 476.800,135.974 477.250,135.836 477.800 C 135.698 478.350,135.422 478.800,135.224 478.800 C 135.026 478.800,134.745 479.340,134.600 480.000 C 134.455 480.660,134.174 481.200,133.976 481.200 C 133.778 481.200,133.502 481.650,133.364 482.200 C 133.226 482.750,132.953 483.200,132.757 483.200 C 132.560 483.200,132.400 483.451,132.400 483.757 C 132.400 484.064,132.130 484.418,131.800 484.545 C 131.470 484.671,131.200 485.141,131.200 485.587 C 131.200 486.034,131.020 486.400,130.800 486.400 C 130.580 486.400,130.400 486.676,130.400 487.013 C 130.400 487.349,130.141 487.724,129.824 487.846 C 129.508 487.967,129.136 488.579,128.999 489.206 C 128.861 489.832,128.490 490.559,128.174 490.821 C 127.858 491.083,127.600 491.546,127.600 491.849 C 127.600 492.152,127.420 492.400,127.200 492.400 C 126.980 492.400,126.800 492.670,126.800 493.000 C 126.800 493.330,126.623 493.600,126.408 493.600 C 126.192 493.600,125.902 494.050,125.764 494.600 C 125.626 495.150,125.353 495.600,125.157 495.600 C 124.960 495.600,124.800 496.050,124.800 496.600 L 124.800 497.600 206.200 497.600 L 287.600 497.600 287.600 496.600 C 287.600 496.050,287.440 495.600,287.243 495.600 C 287.047 495.600,286.774 495.150,286.636 494.600 C 286.498 494.050,286.222 493.600,286.024 493.600 C 285.826 493.600,285.545 493.060,285.400 492.400 C 285.255 491.740,284.979 491.200,284.787 491.200 C 284.595 491.200,284.124 490.525,283.740 489.700 C 283.357 488.875,282.808 488.056,282.522 487.880 C 282.235 487.704,282.000 487.299,282.000 486.980 C 282.000 486.661,281.828 486.400,281.618 486.400 C 281.408 486.400,281.120 485.782,280.979 485.028 C 280.837 484.273,280.469 483.559,280.161 483.440 C 279.852 483.322,279.600 482.949,279.600 482.613 C 279.600 482.276,279.420 482.000,279.200 482.000 C 278.980 482.000,278.800 481.730,278.800 481.400 C 278.800 481.070,278.623 480.800,278.408 480.800 C 278.192 480.800,277.902 480.350,277.764 479.800 C 277.626 479.250,277.372 478.800,277.200 478.800 C 277.028 478.800,276.774 478.350,276.636 477.800 C 276.498 477.250,276.222 476.800,276.024 476.800 C 275.826 476.800,275.545 476.260,275.400 475.600 C 275.255 474.940,274.974 474.400,274.776 474.400 C 274.578 474.400,274.302 473.950,274.164 473.400 C 274.026 472.850,273.753 472.400,273.557 472.400 C 273.360 472.400,273.200 472.149,273.200 471.843 C 273.200 471.536,272.930 471.182,272.600 471.055 C 272.270 470.929,272.000 470.549,272.000 470.213 C 272.000 469.876,271.840 469.600,271.645 469.600 C 271.449 469.600,271.174 468.987,271.034 468.239 C 270.893 467.490,270.513 466.776,270.189 466.651 C 269.865 466.527,269.600 466.149,269.600 465.813 C 269.600 465.476,269.440 465.200,269.243 465.200 C 269.047 465.200,268.774 464.750,268.636 464.200 C 268.498 463.650,268.208 463.200,267.992 463.200 C 267.777 463.200,267.600 462.930,267.600 462.600 C 267.600 462.270,267.440 462.000,267.243 462.000 C 267.047 462.000,266.774 461.550,266.636 461.000 C 266.498 460.450,266.222 460.000,266.024 460.000 C 265.826 460.000,265.545 459.460,265.400 458.800 C 265.255 458.140,264.974 457.600,264.776 457.600 C 264.578 457.600,264.302 457.150,264.164 456.600 C 264.026 456.050,263.772 455.600,263.600 455.600 C 263.428 455.600,263.165 455.113,263.015 454.518 C 262.866 453.923,262.410 453.203,262.003 452.917 C 261.596 452.632,261.148 451.874,261.007 451.233 C 260.866 450.592,260.492 449.967,260.176 449.846 C 259.859 449.724,259.600 449.349,259.600 449.013 C 259.600 448.676,259.420 448.400,259.200 448.400 C 258.980 448.400,258.800 448.143,258.800 447.829 C 258.800 447.514,258.554 447.011,258.253 446.710 C 257.952 446.409,257.566 445.721,257.396 445.181 C 257.225 444.642,256.763 443.919,256.370 443.576 C 255.976 443.233,255.532 442.468,255.383 441.876 C 255.235 441.284,254.972 440.800,254.800 440.800 C 254.628 440.800,254.374 440.350,254.236 439.800 C 254.098 439.250,253.822 438.800,253.624 438.800 C 253.426 438.800,253.145 438.260,253.000 437.600 C 252.855 436.940,252.612 436.400,252.459 436.400 C 252.307 436.400,251.828 435.725,251.395 434.900 C 250.962 434.075,250.381 433.256,250.104 433.080 C 249.827 432.904,249.600 432.499,249.600 432.180 C 249.600 431.861,249.420 431.600,249.200 431.600 C 248.980 431.600,248.800 431.234,248.800 430.787 C 248.800 430.341,248.541 429.876,248.224 429.754 C 247.908 429.633,247.534 429.008,247.393 428.367 C 247.252 427.725,246.971 427.200,246.768 427.200 C 246.566 427.200,246.400 426.930,246.400 426.600 C 246.400 426.270,246.223 426.000,246.008 426.000 C 245.792 426.000,245.502 425.550,245.364 425.000 C 245.226 424.450,244.972 424.000,244.800 424.000 C 244.628 424.000,244.374 423.550,244.236 423.000 C 244.098 422.450,243.822 422.000,243.624 422.000 C 243.426 422.000,243.145 421.460,243.000 420.800 C 242.855 420.140,242.574 419.600,242.376 419.600 C 242.178 419.600,241.902 419.150,241.764 418.600 C 241.626 418.050,241.353 417.600,241.157 417.600 C 240.960 417.600,240.800 417.330,240.800 417.000 C 240.800 416.670,240.624 416.400,240.410 416.400 C 240.028 416.400,238.400 413.213,238.400 412.465 C 238.400 412.256,238.130 411.982,237.800 411.855 C 237.470 411.729,237.200 411.349,237.200 411.013 C 237.200 410.676,237.040 410.400,236.843 410.400 C 236.647 410.400,236.374 409.950,236.236 409.400 C 236.098 408.850,235.808 408.400,235.592 408.400 C 235.377 408.400,235.200 408.130,235.200 407.800 C 235.200 407.470,235.028 407.200,234.818 407.200 C 234.608 407.200,234.312 406.525,234.160 405.700 C 234.009 404.875,233.686 404.072,233.442 403.915 C 233.122 403.708,232.971 381.408,232.894 323.215 L 232.789 242.800 222.394 242.800 L 212.000 242.800 212.000 325.200 C 212.000 372.830,212.150 407.600,212.355 407.600 C 212.550 407.600,212.830 408.406,212.978 409.391 C 213.125 410.376,213.416 411.286,213.623 411.414 C 213.830 411.542,214.000 411.997,214.000 412.424 C 214.000 412.851,214.172 413.200,214.382 413.200 C 214.592 413.200,214.882 413.830,215.026 414.600 C 215.171 415.370,215.449 416.000,215.645 416.000 C 215.840 416.000,216.000 416.276,216.000 416.613 C 216.000 416.949,216.254 417.322,216.564 417.441 C 216.874 417.561,217.246 418.129,217.391 418.705 C 217.535 419.281,217.976 420.033,218.370 420.376 C 218.763 420.719,219.213 421.405,219.370 421.900 C 219.526 422.395,219.807 422.800,219.995 422.800 C 220.183 422.800,220.455 423.340,220.600 424.000 C 220.745 424.660,221.026 425.200,221.224 425.200 C 221.422 425.200,221.698 425.650,221.836 426.200 C 221.974 426.750,222.247 427.200,222.443 427.200 C 222.640 427.200,222.800 427.476,222.800 427.813 C 222.800 428.149,223.070 428.529,223.400 428.655 C 223.730 428.782,224.000 429.136,224.000 429.443 C 224.000 429.749,224.180 430.000,224.400 430.000 C 224.620 430.000,224.800 430.366,224.800 430.813 C 224.800 431.259,225.059 431.724,225.376 431.846 C 225.692 431.967,226.066 432.592,226.207 433.233 C 226.348 433.875,226.626 434.400,226.824 434.400 C 227.022 434.400,227.298 434.850,227.436 435.400 C 227.574 435.950,227.826 436.400,227.997 436.400 C 228.167 436.400,228.412 436.715,228.542 437.100 C 228.876 438.096,229.715 439.345,230.300 439.720 C 230.575 439.896,230.800 440.301,230.800 440.620 C 230.800 440.939,230.980 441.200,231.200 441.200 C 231.420 441.200,231.600 441.566,231.600 442.013 C 231.600 442.459,231.859 442.924,232.176 443.046 C 232.492 443.167,232.866 443.792,233.007 444.433 C 233.148 445.075,233.388 445.600,233.541 445.600 C 233.693 445.600,234.174 446.275,234.608 447.100 C 235.043 447.925,235.624 448.838,235.899 449.129 C 236.175 449.419,236.400 449.914,236.400 450.229 C 236.400 450.543,236.580 450.800,236.800 450.800 C 237.020 450.800,237.200 451.076,237.200 451.413 C 237.200 451.749,237.470 452.129,237.800 452.255 C 238.130 452.382,238.400 452.817,238.400 453.223 C 238.400 453.628,238.625 454.104,238.900 454.280 C 239.175 454.456,239.743 455.275,240.163 456.100 C 240.583 456.925,241.063 457.600,241.231 457.600 C 241.399 457.600,241.655 458.140,241.800 458.800 C 241.945 459.460,242.217 460.000,242.405 460.000 C 242.593 460.000,242.872 460.405,243.027 460.900 C 243.181 461.395,243.419 461.890,243.554 462.000 C 243.931 462.307,244.724 463.659,245.376 465.106 C 245.699 465.824,246.242 466.518,246.582 466.648 C 248.749 467.480,243.682 467.600,206.373 467.600 L 165.546 467.600 165.826 466.700 C 165.980 466.205,166.262 465.740,166.453 465.667 C 166.644 465.593,166.800 465.273,166.800 464.954 C 166.800 464.636,167.052 464.278,167.361 464.160 C 167.669 464.041,168.034 463.344,168.172 462.611 C 168.309 461.877,168.687 461.176,169.011 461.051 C 169.335 460.927,169.600 460.549,169.600 460.213 C 169.600 459.876,169.780 459.600,170.000 459.600 C 170.220 459.600,170.400 459.259,170.400 458.843 C 170.400 458.426,170.670 457.982,171.000 457.855 C 171.330 457.729,171.600 457.349,171.600 457.013 C 171.600 456.676,171.777 456.400,171.992 456.400 C 172.208 456.400,172.498 455.950,172.636 455.400 C 172.774 454.850,173.028 454.400,173.200 454.400 C 173.372 454.400,173.626 453.950,173.764 453.400 C 173.902 452.850,174.178 452.400,174.376 452.400 C 174.574 452.400,174.853 451.868,174.996 451.218 C 175.140 450.565,175.595 449.929,176.014 449.796 C 176.478 449.648,176.870 449.032,177.025 448.205 C 177.165 447.463,177.531 446.759,177.839 446.640 C 178.148 446.522,178.400 446.149,178.400 445.813 C 178.400 445.476,178.580 445.200,178.800 445.200 C 179.020 445.200,179.200 444.943,179.200 444.629 C 179.200 444.314,179.446 443.811,179.747 443.510 C 180.048 443.209,180.434 442.521,180.604 441.981 C 180.775 441.442,181.237 440.719,181.630 440.376 C 182.024 440.033,182.465 439.281,182.609 438.705 C 182.754 438.129,183.126 437.561,183.436 437.441 C 183.746 437.322,184.000 436.859,184.000 436.413 C 184.000 435.966,184.180 435.600,184.400 435.600 C 184.620 435.600,184.800 435.324,184.800 434.987 C 184.800 434.651,185.070 434.271,185.400 434.145 C 185.730 434.018,186.000 433.664,186.000 433.357 C 186.000 433.051,186.160 432.800,186.357 432.800 C 186.553 432.800,186.826 432.350,186.964 431.800 C 187.102 431.250,187.378 430.800,187.576 430.800 C 187.774 430.800,188.055 430.260,188.200 429.600 C 188.345 428.940,188.626 428.400,188.824 428.400 C 189.022 428.400,189.298 427.950,189.436 427.400 C 189.574 426.850,189.828 426.400,190.000 426.400 C 190.172 426.400,190.426 425.950,190.564 425.400 C 190.702 424.850,190.992 424.400,191.208 424.400 C 191.423 424.400,191.600 424.130,191.600 423.800 C 191.600 423.470,191.780 423.200,192.000 423.200 C 192.220 423.200,192.400 422.924,192.400 422.587 C 192.400 422.251,192.652 421.878,192.961 421.760 C 193.269 421.641,193.634 420.944,193.772 420.211 C 193.909 419.477,194.287 418.776,194.611 418.651 C 194.935 418.527,195.200 418.149,195.200 417.813 C 195.200 417.476,195.360 417.200,195.557 417.200 C 195.753 417.200,196.026 416.750,196.164 416.200 C 196.302 415.650,196.592 415.200,196.808 415.200 C 197.023 415.200,197.200 414.930,197.200 414.600 C 197.200 414.270,197.372 414.000,197.582 414.000 C 197.792 414.000,198.088 413.325,198.240 412.500 C 198.391 411.675,198.714 410.872,198.958 410.715 C 199.278 410.508,199.429 387.291,199.506 326.615 L 199.611 242.800 190.006 242.800 L 180.400 242.800 180.400 322.400 " stroke="none" fill="#a48434" fill-rule="evenodd"></path><path id="path1" d="M80.549 185.746 C 80.301 186.029,79.974 186.653,79.822 187.131 C 79.670 187.609,79.378 188.000,79.173 188.000 C 78.968 188.000,78.800 188.276,78.800 188.613 C 78.800 188.949,78.548 189.322,78.239 189.440 C 77.931 189.559,77.576 189.958,77.451 190.328 C 77.187 191.106,76.419 192.327,75.700 193.112 C 75.425 193.412,75.200 193.895,75.200 194.186 C 75.200 194.477,74.930 194.818,74.600 194.945 C 74.270 195.071,74.000 195.451,74.000 195.787 C 74.000 196.124,73.832 196.400,73.627 196.400 C 73.422 196.400,73.126 196.805,72.970 197.300 C 72.813 197.795,72.384 198.470,72.015 198.800 C 71.646 199.130,71.228 199.715,71.085 200.100 C 70.942 200.485,70.639 200.800,70.413 200.800 C 70.186 200.800,70.000 201.057,70.000 201.371 C 70.000 201.686,69.754 202.189,69.453 202.490 C 69.152 202.791,68.780 203.434,68.626 203.919 C 68.472 204.403,68.178 204.800,67.973 204.800 C 67.768 204.800,67.600 205.061,67.600 205.380 C 67.600 205.699,67.365 206.104,67.078 206.280 C 66.792 206.456,66.243 207.275,65.860 208.100 C 65.476 208.925,64.991 209.600,64.781 209.600 C 64.572 209.600,64.400 209.857,64.400 210.171 C 64.400 210.486,64.175 210.988,63.900 211.288 C 63.170 212.085,62.411 213.299,62.142 214.100 C 62.012 214.485,61.748 214.800,61.553 214.800 C 61.359 214.800,61.200 215.160,61.200 215.600 C 61.200 216.395,61.467 216.400,108.600 216.400 C 135.818 216.400,156.000 216.551,156.000 216.754 C 156.000 216.949,156.990 217.232,158.200 217.383 C 159.410 217.534,160.400 217.822,160.400 218.024 C 160.400 218.226,161.120 218.506,162.000 218.646 C 162.880 218.787,163.600 219.059,163.600 219.251 C 163.600 219.443,163.870 219.600,164.200 219.600 C 164.530 219.600,164.800 219.777,164.800 219.992 C 164.800 220.208,165.250 220.498,165.800 220.636 C 166.350 220.774,166.800 221.047,166.800 221.243 C 166.800 221.440,167.076 221.600,167.413 221.600 C 167.749 221.600,168.129 221.870,168.255 222.200 C 168.382 222.530,168.790 222.800,169.162 222.800 C 169.533 222.800,170.279 223.332,170.819 223.983 C 171.358 224.634,171.949 225.174,172.131 225.183 C 172.522 225.203,174.800 227.426,174.800 227.788 C 174.800 227.926,175.225 228.435,175.744 228.919 C 176.264 229.404,176.816 230.205,176.971 230.700 C 177.127 231.195,177.402 231.600,177.584 231.600 C 177.765 231.600,178.027 232.055,178.167 232.610 C 178.306 233.166,178.821 234.021,179.310 234.510 L 180.200 235.400 205.626 235.400 L 231.053 235.400 232.126 234.242 C 232.717 233.604,233.200 232.859,233.200 232.584 C 233.200 232.310,233.470 231.982,233.800 231.855 C 234.130 231.729,234.400 231.259,234.400 230.813 C 234.400 230.366,234.580 230.000,234.800 230.000 C 235.020 230.000,235.200 229.730,235.200 229.400 C 235.200 229.070,235.380 228.800,235.600 228.800 C 235.820 228.800,236.000 228.593,236.000 228.340 C 236.000 228.088,236.585 227.294,237.300 226.577 C 238.015 225.859,238.960 224.814,239.400 224.255 C 239.840 223.695,240.397 223.229,240.639 223.218 C 240.880 223.208,241.493 222.840,242.000 222.400 C 242.507 221.960,243.165 221.600,243.461 221.600 C 243.758 221.600,244.000 221.440,244.000 221.243 C 244.000 221.047,244.484 220.765,245.076 220.617 C 245.668 220.468,246.433 220.023,246.777 219.627 C 247.120 219.231,247.986 218.779,248.700 218.622 C 249.415 218.465,250.000 218.173,250.000 217.973 C 250.000 217.773,250.720 217.494,251.600 217.354 C 252.480 217.213,253.200 216.954,253.200 216.778 C 253.200 216.602,254.190 216.334,255.400 216.183 C 256.610 216.032,257.600 215.749,257.600 215.554 C 257.600 215.351,277.362 215.200,304.000 215.200 C 353.311 215.200,351.608 215.265,349.800 213.457 C 349.470 213.127,349.200 212.684,349.200 212.471 C 349.200 212.259,348.930 211.982,348.600 211.855 C 348.270 211.729,348.000 211.349,348.000 211.013 C 348.000 210.676,347.823 210.400,347.608 210.400 C 347.392 210.400,347.106 209.963,346.972 209.429 C 346.837 208.895,346.474 208.361,346.164 208.241 C 345.854 208.122,345.600 207.749,345.600 207.413 C 345.600 207.076,345.285 206.467,344.900 206.060 C 343.572 204.657,342.880 203.683,342.614 202.843 C 342.466 202.379,342.178 202.000,341.973 202.000 C 341.768 202.000,341.600 201.770,341.600 201.489 C 341.600 201.208,341.240 200.670,340.800 200.293 C 340.360 199.916,340.000 199.336,340.000 199.004 C 340.000 198.672,339.823 198.400,339.608 198.400 C 339.392 198.400,339.104 197.956,338.968 197.414 C 338.832 196.872,338.378 196.320,337.960 196.187 C 337.542 196.055,337.200 195.701,337.200 195.402 C 337.200 195.102,336.954 194.611,336.653 194.310 C 336.352 194.009,335.979 193.363,335.824 192.876 C 335.669 192.388,335.375 192.092,335.171 192.218 C 334.967 192.344,334.800 192.071,334.800 191.611 C 334.800 191.151,334.546 190.678,334.236 190.559 C 333.926 190.439,333.563 189.905,333.428 189.371 C 333.294 188.837,333.008 188.400,332.792 188.400 C 332.577 188.400,332.400 188.130,332.400 187.800 C 332.400 187.470,332.223 187.200,332.008 187.200 C 331.792 187.200,331.502 186.750,331.364 186.200 L 331.113 185.200 279.157 185.200 C 244.786 185.200,227.200 185.335,227.200 185.600 C 227.200 185.820,226.750 186.000,226.200 186.000 C 225.650 186.000,225.200 186.160,225.200 186.355 C 225.200 186.550,224.390 186.831,223.400 186.979 C 222.410 187.128,221.600 187.404,221.600 187.593 C 221.600 187.782,221.060 188.055,220.400 188.200 C 219.740 188.345,219.200 188.609,219.200 188.787 C 219.200 188.965,218.587 189.226,217.839 189.366 C 217.090 189.507,216.376 189.887,216.251 190.211 C 216.127 190.535,215.831 190.800,215.594 190.800 C 215.357 190.800,214.714 191.250,214.164 191.800 C 213.614 192.350,212.902 192.800,212.582 192.800 C 212.262 192.800,212.000 193.094,212.000 193.453 C 212.000 193.812,211.370 194.700,210.600 195.426 C 209.830 196.152,209.200 197.058,209.200 197.440 C 209.200 197.821,209.089 198.022,208.952 197.886 C 208.612 197.545,207.764 198.452,207.426 199.519 C 207.272 200.003,206.999 200.400,206.820 200.400 C 206.640 200.400,206.399 200.760,206.284 201.200 C 205.978 202.370,205.302 202.176,205.007 200.833 C 204.866 200.192,204.492 199.567,204.176 199.446 C 203.859 199.324,203.600 198.982,203.600 198.685 C 203.600 198.387,203.150 197.753,202.600 197.275 C 202.050 196.797,201.600 196.224,201.600 196.002 C 201.600 195.781,200.880 194.900,200.000 194.046 C 199.120 193.192,198.400 192.293,198.400 192.047 C 198.400 191.801,198.206 191.600,197.969 191.600 C 197.732 191.600,196.998 191.060,196.338 190.400 C 195.678 189.740,194.882 189.200,194.569 189.200 C 194.256 189.200,194.000 189.034,194.000 188.832 C 194.000 188.629,193.460 188.345,192.800 188.200 C 192.140 188.055,191.600 187.784,191.600 187.597 C 191.600 187.410,190.610 187.134,189.400 186.983 C 188.190 186.832,187.200 186.549,187.200 186.354 C 187.200 186.159,186.660 186.000,186.000 186.000 C 185.340 186.000,184.800 185.820,184.800 185.600 C 184.800 184.943,81.125 185.088,80.549 185.746 M71.200 304.200 C 71.200 355.800,71.335 382.000,71.600 382.000 C 71.820 382.000,72.000 382.900,72.000 384.000 C 72.000 385.100,72.159 386.000,72.353 386.000 C 72.547 386.000,72.833 387.350,72.987 389.000 C 73.142 390.650,73.408 392.000,73.578 392.000 C 73.749 392.000,74.000 392.944,74.137 394.098 C 74.274 395.251,74.569 396.256,74.793 396.331 C 75.017 396.406,75.201 397.037,75.202 397.733 C 75.204 398.430,75.463 399.494,75.778 400.098 C 76.093 400.702,76.472 402.007,76.621 402.998 C 76.769 403.989,77.050 404.800,77.245 404.800 C 77.440 404.800,77.600 405.160,77.600 405.600 C 77.600 406.040,77.778 406.400,77.995 406.400 C 78.213 406.400,78.506 407.120,78.646 408.000 C 78.787 408.880,79.057 409.600,79.246 409.600 C 79.436 409.600,79.706 410.320,79.846 411.200 C 79.987 412.080,80.245 412.800,80.419 412.800 C 80.594 412.800,80.855 413.340,81.000 414.000 C 81.145 414.660,81.429 415.200,81.632 415.200 C 81.834 415.200,82.000 415.470,82.000 415.800 C 82.000 416.130,82.199 416.400,82.443 416.400 C 82.686 416.400,82.782 416.670,82.655 417.000 C 82.529 417.330,82.599 417.600,82.813 417.600 C 83.026 417.600,83.200 417.870,83.200 418.200 C 83.200 418.530,83.366 418.800,83.568 418.800 C 83.771 418.800,84.063 419.375,84.217 420.077 C 84.371 420.780,84.701 421.584,84.949 421.863 C 86.200 423.275,86.435 423.677,86.658 424.792 C 86.791 425.456,87.058 426.000,87.250 426.000 C 87.442 426.000,87.600 426.276,87.600 426.613 C 87.600 426.949,87.870 427.329,88.200 427.455 C 88.530 427.582,88.800 427.936,88.800 428.243 C 88.800 428.549,88.977 428.800,89.192 428.800 C 89.408 428.800,89.698 429.250,89.836 429.800 C 89.974 430.350,90.235 430.800,90.416 430.800 C 90.598 430.800,90.869 431.188,91.020 431.662 C 91.170 432.137,91.723 432.922,92.247 433.408 C 92.771 433.894,93.200 434.400,93.200 434.532 C 93.200 434.664,93.740 435.325,94.400 436.000 C 95.060 436.675,95.600 437.402,95.600 437.614 C 95.600 437.827,96.320 438.700,97.200 439.554 C 98.080 440.408,98.800 441.224,98.800 441.368 C 98.800 441.778,111.097 454.000,111.509 454.000 C 111.711 454.000,112.614 454.810,113.515 455.800 C 114.416 456.790,115.407 457.600,115.717 457.600 C 116.027 457.600,116.694 458.140,117.200 458.800 C 117.706 459.460,118.287 460.000,118.491 460.000 C 118.695 460.000,119.402 460.540,120.062 461.200 C 120.722 461.860,121.436 462.400,121.649 462.400 C 121.862 462.400,122.461 462.805,122.981 463.300 C 124.498 464.745,125.724 465.600,126.281 465.600 C 126.567 465.600,126.800 465.768,126.800 465.973 C 126.800 467.456,129.861 466.744,130.204 465.182 C 130.347 464.532,130.617 464.000,130.805 464.000 C 130.993 464.000,131.274 463.595,131.430 463.100 C 131.587 462.605,132.023 461.930,132.400 461.600 C 132.777 461.270,133.225 460.558,133.396 460.019 C 133.566 459.479,133.952 458.791,134.253 458.490 C 134.554 458.189,134.800 457.705,134.800 457.414 C 134.800 457.123,135.070 456.782,135.400 456.655 C 135.730 456.529,136.000 456.149,136.000 455.813 C 136.000 455.476,136.177 455.200,136.392 455.200 C 136.608 455.200,136.898 454.750,137.036 454.200 C 137.174 453.650,137.447 453.200,137.643 453.200 C 137.840 453.200,138.000 452.930,138.000 452.600 C 138.000 452.270,138.177 452.000,138.392 452.000 C 138.608 452.000,138.894 451.563,139.028 451.029 C 139.163 450.495,139.526 449.961,139.836 449.841 C 140.146 449.722,140.400 449.349,140.400 449.013 C 140.400 448.676,140.580 448.400,140.800 448.400 C 142.183 448.400,140.846 445.920,139.181 445.397 C 138.642 445.228,137.823 444.685,137.362 444.191 C 136.902 443.697,136.137 443.170,135.662 443.020 C 135.188 442.869,134.800 442.598,134.800 442.416 C 134.800 442.235,134.329 441.968,133.753 441.824 C 133.177 441.679,132.814 441.453,132.946 441.321 C 133.204 441.062,131.685 439.600,131.158 439.600 C 130.982 439.600,129.932 438.745,128.825 437.700 C 127.718 436.655,125.549 434.634,124.006 433.209 C 122.463 431.784,121.200 430.465,121.200 430.277 C 121.200 430.090,120.390 429.127,119.400 428.137 C 118.410 427.147,117.600 426.159,117.600 425.942 C 117.600 425.724,116.970 424.952,116.200 424.226 C 115.430 423.500,114.800 422.742,114.800 422.542 C 114.800 422.342,114.440 421.870,114.000 421.493 C 113.560 421.116,113.200 420.536,113.200 420.204 C 113.200 419.872,113.023 419.600,112.808 419.600 C 112.592 419.600,112.304 419.156,112.168 418.614 C 112.032 418.072,111.596 417.526,111.200 417.400 C 110.804 417.274,110.368 416.728,110.232 416.186 C 110.096 415.644,109.822 415.200,109.624 415.200 C 109.426 415.200,109.145 414.660,109.000 414.000 C 108.855 413.340,108.574 412.800,108.376 412.800 C 108.178 412.800,107.902 412.350,107.764 411.800 C 107.626 411.250,107.367 410.800,107.188 410.800 C 107.010 410.800,106.745 410.260,106.600 409.600 C 106.455 408.940,106.171 408.400,105.968 408.400 C 105.766 408.400,105.600 408.130,105.600 407.800 C 105.600 407.470,105.434 407.200,105.232 407.200 C 105.029 407.200,104.745 406.660,104.600 406.000 C 104.455 405.340,104.191 404.800,104.013 404.800 C 103.835 404.800,103.571 404.170,103.426 403.400 C 103.282 402.630,102.992 402.000,102.782 402.000 C 102.572 402.000,102.400 401.680,102.400 401.289 C 102.400 400.898,102.147 400.217,101.837 399.775 C 101.528 399.333,101.147 398.123,100.992 397.086 C 100.836 396.049,100.550 395.200,100.355 395.200 C 100.160 395.200,100.000 394.840,100.000 394.400 C 100.000 393.960,99.833 393.600,99.629 393.600 C 99.425 393.600,99.134 392.610,98.983 391.400 C 98.832 390.190,98.570 389.200,98.401 389.200 C 98.231 389.200,97.964 387.985,97.805 386.500 C 97.646 385.015,97.311 383.672,97.058 383.515 C 96.717 383.302,96.572 363.214,96.489 304.815 L 96.379 226.400 83.789 226.400 L 71.200 226.400 71.200 304.200 M108.993 227.300 C 108.486 229.357,108.985 382.528,109.500 382.700 C 109.775 382.792,110.000 383.392,110.000 384.033 C 110.000 384.675,110.155 385.200,110.344 385.200 C 110.534 385.200,110.799 386.131,110.934 387.270 C 111.069 388.408,111.338 389.443,111.532 389.570 C 111.726 389.696,112.007 390.467,112.157 391.283 C 112.307 392.099,112.692 393.269,113.012 393.883 C 113.333 394.497,113.596 395.315,113.598 395.700 C 113.599 396.085,113.780 396.400,114.000 396.400 C 114.220 396.400,114.400 396.670,114.400 397.000 C 114.400 397.330,114.588 397.600,114.818 397.600 C 115.047 397.600,115.208 397.825,115.174 398.100 C 115.083 398.852,115.648 400.400,116.015 400.400 C 116.192 400.400,116.455 400.940,116.600 401.600 C 116.745 402.260,117.015 402.800,117.200 402.800 C 117.385 402.800,117.655 403.340,117.800 404.000 C 117.945 404.660,118.210 405.200,118.388 405.200 C 118.567 405.200,118.826 405.650,118.964 406.200 C 119.102 406.750,119.378 407.200,119.576 407.200 C 119.774 407.200,120.047 407.705,120.183 408.322 C 120.319 408.940,120.783 409.699,121.215 410.011 C 121.647 410.322,122.000 410.813,122.000 411.101 C 122.000 411.389,122.263 411.726,122.585 411.850 C 122.906 411.973,123.287 412.445,123.432 412.899 C 123.576 413.353,124.123 414.122,124.647 414.608 C 125.171 415.094,125.600 415.667,125.600 415.880 C 125.600 416.094,126.320 416.915,127.200 417.705 C 128.080 418.495,128.800 419.338,128.800 419.577 C 128.800 420.242,134.578 425.874,135.086 425.705 C 135.331 425.623,135.647 425.917,135.787 426.358 C 135.926 426.798,136.394 427.271,136.826 427.408 C 137.258 427.545,137.516 427.812,137.400 428.000 C 137.284 428.188,137.596 428.470,138.094 428.627 C 138.592 428.783,139.372 429.291,139.826 429.756 C 140.683 430.632,141.767 431.407,142.800 431.880 C 143.130 432.031,143.638 432.390,143.929 432.678 C 144.219 432.965,144.695 433.200,144.986 433.200 C 145.277 433.200,145.618 433.470,145.745 433.800 C 145.871 434.130,146.251 434.400,146.587 434.400 C 146.924 434.400,147.200 434.580,147.200 434.800 C 147.200 435.020,147.393 435.200,147.629 435.200 C 148.182 435.200,149.200 434.182,149.200 433.629 C 149.200 433.393,149.384 433.200,149.610 433.200 C 149.835 433.200,150.195 432.795,150.409 432.300 C 150.880 431.211,151.624 430.026,152.300 429.288 C 152.575 428.988,152.800 428.486,152.800 428.171 C 152.800 427.857,152.980 427.600,153.200 427.600 C 153.420 427.600,153.600 427.349,153.600 427.043 C 153.600 426.736,153.870 426.382,154.200 426.255 C 154.530 426.129,154.800 425.679,154.800 425.255 C 154.800 424.832,155.070 424.382,155.400 424.255 C 155.730 424.129,156.000 423.749,156.000 423.413 C 156.000 423.076,156.177 422.800,156.392 422.800 C 156.608 422.800,156.898 422.350,157.036 421.800 C 157.174 421.250,157.428 420.800,157.600 420.800 C 157.772 420.800,158.026 420.350,158.164 419.800 C 158.302 419.250,158.592 418.800,158.808 418.800 C 159.023 418.800,159.200 418.549,159.200 418.243 C 159.200 417.936,159.470 417.582,159.800 417.455 C 160.130 417.329,160.400 416.949,160.400 416.613 C 160.400 416.276,160.580 416.000,160.800 416.000 C 161.020 416.000,161.200 415.821,161.200 415.603 C 161.200 414.975,159.512 413.200,158.915 413.200 C 158.618 413.200,158.274 412.937,158.150 412.615 C 158.027 412.294,157.571 411.918,157.137 411.780 C 156.703 411.642,155.405 410.556,154.252 409.365 C 153.098 408.174,152.016 407.200,151.847 407.200 C 151.677 407.200,150.998 406.660,150.338 406.000 C 149.678 405.340,148.984 404.800,148.796 404.800 C 148.608 404.800,148.327 404.401,148.173 403.914 C 148.018 403.427,147.106 402.243,146.146 401.283 C 145.186 400.322,144.400 399.324,144.400 399.065 C 144.400 398.805,144.040 398.368,143.600 398.093 C 143.160 397.818,142.800 397.365,142.800 397.086 C 142.800 396.806,142.440 396.270,142.000 395.893 C 141.560 395.516,141.200 394.936,141.200 394.604 C 141.200 394.272,141.034 394.000,140.832 394.000 C 140.629 394.000,140.345 393.460,140.200 392.800 C 140.055 392.140,139.774 391.600,139.576 391.600 C 139.378 391.600,139.102 391.150,138.964 390.600 C 138.826 390.050,138.553 389.600,138.357 389.600 C 138.160 389.600,138.000 389.330,138.000 389.000 C 138.000 388.670,137.843 388.400,137.651 388.400 C 137.459 388.400,137.187 387.680,137.046 386.800 C 136.906 385.920,136.624 385.200,136.420 385.200 C 136.216 385.200,135.928 384.390,135.779 383.400 C 135.631 382.410,135.370 381.600,135.201 381.600 C 134.909 381.600,134.172 377.374,134.341 376.670 C 134.384 376.489,134.235 376.455,134.010 376.594 C 133.731 376.767,133.600 353.084,133.600 302.256 C 133.600 261.231,133.491 227.381,133.357 227.033 C 133.143 226.475,131.692 226.400,121.165 226.400 L 109.215 226.400 108.993 227.300 M279.600 299.600 C 279.600 348.133,279.465 372.800,279.200 372.800 C 278.980 372.800,278.800 373.520,278.800 374.400 C 278.800 375.280,278.660 376.000,278.489 376.000 C 278.319 376.000,278.248 376.720,278.331 377.600 C 278.426 378.593,278.316 379.200,278.042 379.200 C 277.799 379.200,277.600 379.472,277.600 379.805 C 277.600 380.138,277.430 380.723,277.222 381.105 C 277.014 381.487,276.736 382.475,276.604 383.300 C 276.472 384.125,276.203 384.800,276.006 384.800 C 275.810 384.800,275.528 385.610,275.379 386.600 C 275.231 387.590,274.964 388.400,274.786 388.400 C 274.609 388.400,274.345 388.940,274.200 389.600 C 274.055 390.260,273.779 390.800,273.586 390.800 C 273.394 390.800,273.118 391.430,272.974 392.200 C 272.829 392.970,272.551 393.600,272.355 393.600 C 272.160 393.600,272.000 393.851,272.000 394.157 C 272.000 394.464,271.730 394.818,271.400 394.945 C 271.070 395.071,270.800 395.451,270.800 395.787 C 270.800 396.124,270.623 396.400,270.408 396.400 C 270.192 396.400,269.902 396.850,269.764 397.400 C 269.626 397.950,269.365 398.400,269.184 398.400 C 269.002 398.400,268.742 398.752,268.606 399.181 C 268.470 399.611,267.470 400.826,266.385 401.881 C 265.300 402.937,264.410 403.962,264.406 404.160 C 264.403 404.357,263.770 405.131,263.000 405.879 C 262.230 406.627,261.600 407.420,261.600 407.643 C 261.600 407.865,261.465 407.965,261.300 407.866 C 260.937 407.646,259.962 408.629,260.254 408.921 C 260.368 409.034,260.087 409.246,259.630 409.390 C 259.174 409.535,258.800 409.822,258.800 410.027 C 258.800 410.232,258.570 410.400,258.289 410.400 C 258.008 410.400,257.498 410.715,257.156 411.100 C 256.088 412.302,254.024 414.000,253.630 414.000 C 253.423 414.000,253.145 414.345,253.011 414.766 C 252.718 415.689,253.145 417.600,253.643 417.600 C 253.840 417.600,254.000 417.857,254.000 418.171 C 254.000 418.486,254.246 418.989,254.547 419.290 C 254.848 419.591,255.220 420.234,255.374 420.719 C 255.528 421.203,255.822 421.600,256.027 421.600 C 256.232 421.600,256.400 421.870,256.400 422.200 C 256.400 422.530,256.580 422.800,256.800 422.800 C 257.020 422.800,257.200 423.076,257.200 423.413 C 257.200 423.749,257.470 424.129,257.800 424.255 C 258.130 424.382,258.400 424.832,258.400 425.255 C 258.400 425.679,258.654 426.122,258.964 426.241 C 259.274 426.361,259.641 426.910,259.780 427.463 C 259.919 428.016,260.202 428.678,260.410 428.934 C 262.192 431.132,262.730 431.926,262.985 432.739 C 263.483 434.332,265.600 435.999,265.600 434.800 C 265.600 434.580,265.864 434.400,266.186 434.400 C 266.509 434.400,267.325 433.860,268.000 433.200 C 268.675 432.540,269.372 432.000,269.548 432.000 C 269.724 432.000,270.349 431.460,270.937 430.800 C 271.525 430.140,272.188 429.600,272.411 429.600 C 273.040 429.600,287.480 415.008,287.777 414.072 C 287.922 413.615,288.391 413.130,288.820 412.994 C 289.248 412.858,289.705 412.322,289.835 411.802 C 289.966 411.283,290.326 410.761,290.636 410.641 C 290.946 410.522,291.200 410.079,291.200 409.655 C 291.200 409.232,291.470 408.782,291.800 408.655 C 292.130 408.529,292.400 408.149,292.400 407.813 C 292.400 407.476,292.577 407.200,292.792 407.200 C 293.008 407.200,293.298 406.750,293.436 406.200 C 293.574 405.650,293.847 405.200,294.043 405.200 C 294.240 405.200,294.400 404.930,294.400 404.600 C 294.400 404.270,294.566 404.000,294.768 404.000 C 294.971 404.000,295.255 403.460,295.400 402.800 C 295.545 402.140,295.829 401.600,296.032 401.600 C 296.234 401.600,296.401 401.375,296.402 401.100 C 296.404 400.825,296.676 400.081,297.006 399.447 C 297.337 398.813,297.719 397.598,297.855 396.747 C 297.991 395.896,298.248 395.200,298.427 395.200 C 298.605 395.200,298.872 394.390,299.021 393.400 C 299.169 392.410,299.450 391.600,299.645 391.600 C 299.840 391.600,300.000 391.150,300.000 390.600 C 300.000 390.050,300.162 389.600,300.361 389.600 C 300.559 389.600,300.847 388.520,301.000 387.200 C 301.153 385.880,301.420 384.800,301.593 384.800 C 301.765 384.800,302.036 383.585,302.195 382.100 C 302.354 380.615,302.689 379.272,302.942 379.115 C 303.283 378.902,303.428 359.361,303.510 302.615 L 303.620 226.400 291.610 226.400 L 279.600 226.400 279.600 299.600 M316.400 302.400 C 316.400 352.800,316.265 378.400,316.000 378.400 C 315.780 378.400,315.600 379.180,315.600 380.133 C 315.600 381.087,315.470 381.996,315.312 382.155 C 315.153 382.313,315.077 383.063,315.143 383.821 C 315.211 384.613,315.078 385.200,314.831 385.200 C 314.594 385.200,314.400 385.830,314.400 386.600 C 314.400 387.370,314.243 388.000,314.052 388.000 C 313.860 388.000,313.585 388.893,313.440 389.984 C 313.295 391.075,313.012 392.069,312.812 392.193 C 312.611 392.317,312.325 393.224,312.178 394.209 C 312.030 395.194,311.765 396.000,311.590 396.000 C 311.414 396.000,311.149 396.720,311.000 397.600 C 310.851 398.480,310.566 399.200,310.365 399.200 C 310.164 399.200,310.000 399.560,310.000 400.000 C 310.000 400.440,309.840 400.800,309.643 400.800 C 309.447 400.800,309.171 401.295,309.030 401.900 C 308.718 403.234,307.514 405.749,307.100 405.933 C 306.935 406.007,306.800 406.399,306.800 406.805 C 306.800 407.211,306.539 407.804,306.220 408.123 C 305.901 408.442,305.521 409.175,305.376 409.752 C 305.232 410.328,304.953 410.800,304.757 410.800 C 304.560 410.800,304.400 411.070,304.400 411.400 C 304.400 411.730,304.223 412.000,304.008 412.000 C 303.792 412.000,303.502 412.450,303.364 413.000 C 303.226 413.550,302.972 414.000,302.800 414.000 C 302.628 414.000,302.374 414.450,302.236 415.000 C 302.098 415.550,301.808 416.000,301.592 416.000 C 301.377 416.000,301.200 416.276,301.200 416.613 C 301.200 416.949,300.930 417.329,300.600 417.455 C 300.270 417.582,300.000 417.936,300.000 418.243 C 300.000 418.549,299.832 418.800,299.627 418.800 C 299.422 418.800,299.127 419.205,298.971 419.700 C 298.816 420.195,298.285 420.977,297.791 421.438 C 297.297 421.898,296.776 422.647,296.632 423.101 C 296.487 423.555,296.106 424.027,295.785 424.150 C 295.463 424.274,295.195 424.696,295.189 425.087 C 295.183 425.479,294.557 426.250,293.797 426.800 C 293.038 427.350,292.302 428.144,292.161 428.565 C 291.887 429.384,281.780 439.600,281.244 439.600 C 280.745 439.600,278.059 442.326,278.310 442.577 C 278.433 442.700,278.183 442.800,277.756 442.800 C 277.328 442.800,276.670 443.160,276.293 443.600 C 275.916 444.040,275.355 444.400,275.047 444.400 C 274.738 444.400,274.382 444.670,274.255 445.000 C 274.129 445.330,273.649 445.600,273.189 445.600 C 272.729 445.600,272.464 445.780,272.600 446.000 C 272.736 446.220,272.657 446.400,272.424 446.400 C 272.191 446.400,272.000 446.850,272.000 447.400 C 272.000 447.950,272.174 448.400,272.387 448.400 C 272.601 448.400,272.678 448.654,272.559 448.964 C 272.430 449.299,272.667 449.631,273.143 449.782 C 273.606 449.929,274.054 450.536,274.204 451.218 C 274.347 451.868,274.626 452.400,274.824 452.400 C 275.022 452.400,275.298 452.850,275.436 453.400 C 275.574 453.950,275.828 454.400,276.000 454.400 C 276.172 454.400,276.426 454.850,276.564 455.400 C 276.702 455.950,276.992 456.400,277.208 456.400 C 277.423 456.400,277.600 456.670,277.600 457.000 C 277.600 457.330,277.799 457.600,278.043 457.600 C 278.286 457.600,278.393 457.842,278.279 458.138 C 278.166 458.434,278.410 458.919,278.822 459.216 C 279.234 459.512,279.681 460.260,279.817 460.878 C 279.953 461.495,280.210 462.000,280.388 462.000 C 280.567 462.000,280.826 462.450,280.964 463.000 C 281.102 463.550,281.392 464.000,281.608 464.000 C 281.823 464.000,282.000 464.270,282.000 464.600 C 282.000 464.930,282.191 465.200,282.424 465.200 C 282.657 465.200,282.724 465.400,282.572 465.645 C 281.896 466.740,285.104 467.239,286.143 466.200 C 286.473 465.870,286.911 465.600,287.115 465.600 C 287.320 465.600,287.828 465.148,288.243 464.595 C 288.658 464.042,289.193 463.665,289.432 463.757 C 289.671 463.849,290.192 463.491,290.590 462.962 C 290.987 462.433,291.481 462.000,291.687 462.000 C 291.893 462.000,292.602 461.460,293.262 460.800 C 293.922 460.140,294.642 459.600,294.862 459.600 C 295.082 459.600,295.934 458.880,296.755 458.000 C 297.575 457.120,298.373 456.400,298.527 456.400 C 298.821 456.400,301.006 454.565,301.760 453.686 C 302.002 453.403,302.968 452.413,303.907 451.486 C 304.846 450.559,306.106 449.303,306.707 448.695 C 309.687 445.680,311.222 444.160,311.688 443.760 C 312.626 442.953,314.400 440.811,314.400 440.485 C 314.400 440.307,314.932 439.721,315.583 439.181 C 316.234 438.642,316.774 438.052,316.783 437.871 C 316.792 437.691,317.025 437.308,317.300 437.020 C 317.575 436.733,318.070 436.090,318.400 435.590 C 318.730 435.091,319.450 434.195,320.000 433.598 C 321.236 432.258,321.952 431.213,322.258 430.300 C 322.388 429.915,322.663 429.600,322.870 429.600 C 323.078 429.600,323.136 429.420,323.000 429.200 C 322.864 428.980,322.943 428.800,323.176 428.800 C 323.409 428.800,323.600 428.530,323.600 428.200 C 323.600 427.870,323.780 427.600,324.000 427.600 C 324.220 427.600,324.400 427.324,324.400 426.987 C 324.400 426.651,324.652 426.278,324.961 426.160 C 325.269 426.041,325.637 425.327,325.779 424.572 C 325.920 423.818,326.208 423.200,326.418 423.200 C 326.628 423.200,326.800 422.930,326.800 422.600 C 326.800 422.270,326.966 422.000,327.168 422.000 C 327.371 422.000,327.655 421.460,327.800 420.800 C 327.945 420.140,328.215 419.600,328.400 419.600 C 328.585 419.600,328.855 419.060,329.000 418.400 C 329.145 417.740,329.421 417.200,329.614 417.200 C 329.806 417.200,330.082 416.570,330.226 415.800 C 330.371 415.030,330.635 414.400,330.813 414.400 C 330.991 414.400,331.263 413.815,331.418 413.100 C 331.574 412.385,331.813 411.710,331.950 411.600 C 332.531 411.135,333.203 409.524,333.444 408.017 C 333.586 407.128,333.848 406.400,334.027 406.400 C 334.205 406.400,334.472 405.590,334.621 404.600 C 334.769 403.610,335.037 402.800,335.217 402.800 C 335.396 402.800,335.666 401.810,335.817 400.600 C 335.968 399.390,336.238 398.400,336.417 398.400 C 336.596 398.400,336.866 397.410,337.017 396.200 C 337.168 394.990,337.451 394.000,337.646 394.000 C 337.841 394.000,338.000 393.460,338.000 392.800 C 338.000 392.140,338.159 391.600,338.353 391.600 C 338.547 391.600,338.836 390.205,338.995 388.500 C 339.154 386.795,339.437 385.304,339.624 385.188 C 339.811 385.071,340.088 383.046,340.241 380.688 C 340.393 378.329,340.671 376.400,340.859 376.400 C 341.047 376.400,341.200 342.650,341.200 301.400 L 341.200 226.400 328.800 226.400 L 316.400 226.400 316.400 302.400 " stroke="none" fill="#043c74" fill-rule="evenodd"></path><path id="path2" d="" stroke="none" fill="#a86054" fill-rule="evenodd"></path><path id="path3" d="" stroke="none" fill="#306054" fill-rule="evenodd"></path><path id="path4" d="M278.101 377.800 C 278.105 378.680,278.187 378.993,278.283 378.495 C 278.379 377.998,278.375 377.278,278.275 376.895 C 278.175 376.513,278.096 376.920,278.101 377.800 " stroke="none" fill="#046454" fill-rule="evenodd"></path><path id="path5" d="M187.700 186.676 C 188.085 186.776,188.715 186.776,189.100 186.676 C 189.485 186.575,189.170 186.493,188.400 186.493 C 187.630 186.493,187.315 186.575,187.700 186.676 M314.893 384.000 C 314.893 384.770,314.975 385.085,315.076 384.700 C 315.176 384.315,315.176 383.685,315.076 383.300 C 314.975 382.915,314.893 383.230,314.893 384.000 M72.501 387.400 C 72.505 388.280,72.587 388.593,72.683 388.095 C 72.779 387.598,72.775 386.878,72.675 386.495 C 72.575 386.113,72.496 386.520,72.501 387.400 " stroke="none" fill="#043c78" fill-rule="evenodd"></path><path id="path6" d="M187.700 186.676 C 188.085 186.776,188.715 186.776,189.100 186.676 C 189.485 186.575,189.170 186.493,188.400 186.493 C 187.630 186.493,187.315 186.575,187.700 186.676 M314.893 384.000 C 314.893 384.770,314.975 385.085,315.076 384.700 C 315.176 384.315,315.176 383.685,315.076 383.300 C 314.975 382.915,314.893 383.230,314.893 384.000 M72.501 387.400 C 72.505 388.280,72.587 388.593,72.683 388.095 C 72.779 387.598,72.775 386.878,72.675 386.495 C 72.575 386.113,72.496 386.520,72.501 387.400 " stroke="none" fill="#043c78" fill-rule="evenodd"></path></g></svg>